<svg id="Layer_1" enable-background="new 0 0 256 256" height="512" viewBox="0 0 256 256" width="512" xmlns="http://www.w3.org/2000/svg"><g id="Layer_87"><g><circle cx="242" cy="206" fill="#87d147" r="3"/><path d="m255.8 183.9c-4-.7-7.1-3.8-7.9-7.7 0-.1-.1-.2-.2-.1-.1 0-.1.1-.1.1-.8 4-3.9 7-7.9 7.7-.1 0-.2.1-.1.2 0 .1.1.1.1.1 4 .7 7.1 3.8 7.9 7.7 0 .1.1.2.2.1.1 0 .1-.1.1-.1.8-4 3.9-7 7.9-7.7.1 0 .2-.1.1-.2.1 0 0-.1-.1-.1z" fill="#f5c84c"/><circle cx="3" cy="80" fill="#3caadc" r="3"/><circle cx="187" cy="14" fill="#87d147" r="3"/><circle cx="54" cy="242" fill="#f5c84c" r="3"/><path d="m5.8 51.9h2.1v-2.1c0-1.5 1.3-2.8 2.8-2.8s2.8 1.3 2.8 2.8v2.1h2.1c1.5 0 2.8 1.3 2.8 2.8s-1.3 2.8-2.8 2.8h-2.1v2.1c0 1.5-1.3 2.8-2.8 2.8s-2.8-1.3-2.8-2.8v-2.1h-2.1c-1.5 0-2.8-1.3-2.8-2.8 0-1.6 1.3-2.8 2.8-2.8z" fill="#ef4460"/><path d="m26.7 25.4h216.2v60.7h-216.2z" fill="#fc657e"/><path d="m13.1 99.7h216.2v60.7h-216.2z" fill="#87d147"/><path d="m13.1 160.4h216.2v70.2h-216.2z" fill="#edf4fc"/><path d="m26.7 86.1v13.6h202.6v9.7 41.3 5.6h13.6v-70.2z" fill="#dae6f1"/><path d="m212.4 35.1h30.5v41.3h-30.5z" fill="#ef4460"/><path d="m198.8 109.4h30.5v41.3h-30.5z" fill="#57af12"/><path d="m161.1 35.1h51.4v41.3h-51.4z" fill="#dae6f1"/><path d="m147.5 109.4h51.4v41.3h-51.4z" fill="#edf4fc"/><path d="m179.2 52.3h15.1c1.2 0 2.2 1 2.2 2.2v12.5c0 1.2-1 2.2-2.2 2.2h-15.1c-1.2 0-2.2-1-2.2-2.2v-12.5c-.1-1.2.9-2.2 2.2-2.2z" fill="#ef4460"/><path d="m165.6 126.7h15.1c1.2 0 2.2 1 2.2 2.2v12.5c0 1.2-1 2.2-2.2 2.2h-15.1c-1.2 0-2.2-1-2.2-2.2v-12.5c-.1-1.2.9-2.2 2.2-2.2z" fill="#57af12"/><path d="m242.9 22.9h-216.2c-1.4 0-2.5 1.1-2.5 2.5v71.8h-11.1c-1.4 0-2.5 1.1-2.5 2.5v130.9c0 1.4 1.1 2.5 2.5 2.5h216.2c1.4 0 2.5-1.1 2.5-2.5v-71.8h11.1c1.4 0 2.5-1.1 2.5-2.5v-130.9c0-1.4-1.1-2.5-2.5-2.5zm-16.1 205.2h-211.2v-65.2h211.2zm0-79.9h-25.5v-36.3h25.5zm0-41.3h-79.3c-1.4 0-2.5 1.1-2.5 2.5v41.3c0 1.4 1.1 2.5 2.5 2.5h79.3v4.7h-211.2v-55.7h211.2zm-30.5 5v36.3h-46.3v-36.3zm44.1 41.9h-8.6v-54.1c0-1.4-1.1-2.5-2.5-2.5h-200.1v-8.6h211.2zm0-79.9h-25.5v-36.3h25.5zm0-41.3h-79.3c-1.4 0-2.5 1.1-2.5 2.5v41.3c0 1.4 1.1 2.5 2.5 2.5h79.3v4.7h-211.2v-55.7h211.2zm-30.5 5v36.3h-46.4v-36.3z"/><path d="m133.9 73.8c9.8-.2 17.6-8.2 17.6-18 0-1.4-1.1-2.5-2.5-2.5s-2.5 1.1-2.5 2.5c0 7.2-5.8 13.1-13 13.1s-13.1-5.8-13.1-13 5.8-13.1 13-13.1c2.2 0 4.4.6 6.3 1.6h-.3c-1.4.1-2.4 1.2-2.4 2.6.1 1.4 1.2 2.4 2.6 2.4l6.5-.3c1.4-.1 2.4-1.2 2.4-2.6l-.3-6.5c-.1-1.4-1.2-2.4-2.6-2.4-1.4.1-2.4 1.2-2.4 2.6v.5c-12.1-7.9-27.6 1.1-27.6 15.1.1 11 9.9 18.8 18.3 18z"/><path d="m79.9 58.2h16.4l-5.3 5.3c-1 1-.9 2.6 0 3.5 1 .9 2.5.9 3.5 0l9.5-9.5c1-1 1-2.6 0-3.5l-9.5-9.5c-1-1-2.6-.9-3.5 0-.9 1-.9 2.5 0 3.5l5.3 5.3h-16.4c-1.4 0-2.5 1.1-2.5 2.5s1.1 2.4 2.5 2.4z"/><path d="m52 67c1 1 2.6.9 3.5 0 .9-1 .9-2.5 0-3.5l-5.3-5.3h16.4c1.4 0 2.5-1.1 2.5-2.5s-1.1-2.5-2.5-2.5h-16.3l5.3-5.3c1-1 .9-2.6-.1-3.5s-2.5-.9-3.5 0l-9.5 9.6c-1 1-1 2.6 0 3.5z"/><path d="m119.6 148.2c8.4.8 18.3-7 18.3-18 0-3.3-5-3.3-5 0 0 7.2-5.8 13.1-13 13.1s-13.1-5.8-13.1-13 5.8-13.1 13-13.1c2.2 0 4.4.6 6.3 1.6h-.3c-1.4.1-2.5 1.2-2.4 2.6s1.2 2.5 2.6 2.4l6.5-.3c1.4-.1 2.5-1.2 2.4-2.6l-.3-6.5c-.1-1.4-1.2-2.4-2.6-2.4-1.4.1-2.4 1.2-2.4 2.6v.5c-12-7.8-27.6 1-27.6 15.1.1 9.7 7.9 17.7 17.6 18z"/><path d="m66.3 132.6h16.4l-5.3 5.3c-1 1-1 2.5 0 3.5s2.5 1 3.5 0l9.5-9.5c1-1 1-2.6 0-3.5l-9.5-9.5c-1-1-2.5-1-3.5 0s-1 2.5 0 3.5l5.3 5.3h-16.4c-1.4 0-2.5 1.1-2.5 2.5 0 1.3 1.1 2.4 2.5 2.4z"/><path d="m38.4 141.4c1 1 2.5 1 3.5 0s1-2.5 0-3.5l-5.3-5.3h16.4c1.4 0 2.5-1.1 2.5-2.5s-1.1-2.5-2.5-2.5h-16.3l5.3-5.3c1-1 1-2.5 0-3.5s-2.5-1-3.5 0l-9.5 9.5c-1 1-1 2.6 0 3.5z"/><path d="m174.1 52.8.6.4c-.1.4-.2.9-.2 1.3v12.5c0 2.6 2.1 4.7 4.7 4.7h15.1c.9 0 1.8-.3 2.5-.7l.7.5c1.1.9 2.6.7 3.5-.4s.7-2.6-.4-3.5l-1.6-1.3v-11.8c0-2-1.3-3.8-3.2-4.5v-1.3c0-5-4.1-9.1-9.1-9.1s-9.1 4.1-9.1 9.1v.5l-.5-.4c-1.1-.9-2.6-.7-3.5.4-.8 1.1-.6 2.7.5 3.6zm19.9 2v7.5l-9.4-7.5zm-11.3-6c0-2.3 1.8-4.1 4.1-4.1s4.1 1.8 4.1 4.1v1h-8.2zm-3.3 8.3 12.1 9.7h-12.1z"/><path d="m165.6 146.1h15.1c2.6 0 4.7-2.1 4.7-4.7v-12.5c0-2-1.3-3.8-3.2-4.5v-1.3c0-5-4.1-9.1-9.1-9.1s-9.1 4.1-9.1 9.1v1.3c-1.9.6-3.2 2.4-3.2 4.5v12.5c0 2.6 2.2 4.7 4.8 4.7zm3.5-23c0-2.3 1.8-4.1 4.1-4.1s4.1 1.8 4.1 4.1v1h-8.2zm-3.3 6.1h14.6v11.9h-14.6z"/></g></g></svg>