<?xml version="1.0"?>
<svg xmlns="http://www.w3.org/2000/svg" viewBox="0 0 64 64" width="512" height="512"><path d="m49 15v-7a5 5 0 0 0 -10 0v20h15a5 5 0 0 0 5-5v-8z" fill="#b2c7d1"/><path d="m11 3a5 5 0 0 0 -5 5v23h10.882a1 1 0 0 1 .894.553l1.948 3.894a1 1 0 0 0 .894.553h18.382v-28a5 5 0 0 1 5-5z" fill="#d2ebf7"/><path d="m45 36a1 1 0 0 1 1 1v-4a1 1 0 0 0 -1-1h-6v4z" fill="#41bdf7"/><path d="m45 36h-24.382a1 1 0 0 1 -.894-.553l-1.948-3.894a1 1 0 0 0 -.894-.553h-11.882a1 1 0 0 0 -1 1v28a1 1 0 0 0 1 1h40a1 1 0 0 0 1-1v-23a1 1 0 0 0 -1-1z" fill="#41bdf7"/><path d="m34.114 55.493-8.252-14.028a1 1 0 0 0 -1.724 0l-8.252 14.028a1 1 0 0 0 .862 1.507h16.5a1 1 0 0 0 .866-1.507z" fill="#f7ba41"/><path d="m44 2h-33a6.006 6.006 0 0 0 -6 6v22a2 2 0 0 0 -2 2v28a2 2 0 0 0 2 2h40a2 2 0 0 0 2-2v-27a2 2 0 0 0 -2-2h-5v-2h14a6.006 6.006 0 0 0 6-6v-8a1 1 0 0 0 -1-1h-9v-6a6.006 6.006 0 0 0 -6-6zm-37 6a4 4 0 0 1 4-4h28.54a5.969 5.969 0 0 0 -1.54 4v27h-17.382l-1.947-3.895a1.99 1.99 0 0 0 -1.789-1.105h-9.882zm38 52h-40v-28h11.882l1.947 3.9a1.99 1.99 0 0 0 1.789 1.1h24.382zm0-27v2h-5v-2zm-5-25a4 4 0 0 1 8 0v16h.09a5.979 5.979 0 0 0 1.45 3h-9.54zm18 8v7a4 4 0 0 1 -8 0v-7z"/><path d="m26.724 40.958a2 2 0 0 0 -3.448 0l-8.251 14.028a2 2 0 0 0 1.724 3.014h16.5a2 2 0 0 0 1.724-3.014zm-9.975 15.042 8.251-14.028 8.251 14.028z"/><path d="m24 46h2v5h-2z"/><path d="m24 53h2v2h-2z"/><path d="m9 10h3v2h-3z"/><path d="m18 10h2v2h-2z"/><path d="m22 10h7v2h-7z"/><path d="m31 10h5v2h-5z"/><path d="m9 14h7v2h-7z"/><path d="m18 14h2v2h-2z"/><path d="m22 14h5v2h-5z"/><path d="m29 14h7v2h-7z"/><path d="m9 18h4v2h-4z"/><path d="m15 18h5v2h-5z"/><path d="m22 18h2v2h-2z"/><path d="m26 18h10v2h-10z"/><path d="m9 22h6v2h-6z"/><path d="m17 22h3v2h-3z"/><path d="m22 22h3v2h-3z"/><path d="m27 22h9v2h-9z"/><path d="m14 10h2v2h-2z"/><path d="m9 26h7v2h-7z"/><path d="m18 26h2v2h-2z"/><path d="m22 26h5v2h-5z"/><path d="m29 26h7v2h-7z"/></svg>
