<svg height="480pt" viewBox="0 -48 480 480" width="480pt" xmlns="http://www.w3.org/2000/svg"><path d="m440 48h-184v-24c0-8.800781-7.199219-16-16-16h-176c-8.800781 0-16 7.199219-16 16v64h328c17.601562 0 32 14.398438 32 32v224c0 17.601562 14.398438 32 32 32s32-14.398438 32-32v-264c0-17.601562-14.398438-32-32-32zm0 0" fill="#24788e"/><path d="m440 376h-400c-17.601562 0-32-14.398438-32-32v-224c0-17.601562 14.398438-32 32-32h336c17.601562 0 32 14.398438 32 32v224c0 17.601562 14.398438 32 32 32zm0 0" fill="#52b0c6"/><path d="m432 96h16v248h-16zm0 0" fill="#2c98b5"/><path d="m320 232c0 61.855469-50.144531 112-112 112s-112-50.144531-112-112 50.144531-112 112-112 112 50.144531 112 112zm0 0" fill="#239172"/><path d="m160 208h96c4.800781 0 8 3.199219 8 8v72c0 4.800781-3.199219 8-8 8h-96c-4.800781 0-8-3.199219-8-8v-72c0-4.800781 3.199219-8 8-8zm0 0" fill="#f4c167"/><path d="m248 208h-16v-24c0-13.601562-10.398438-24-24-24s-24 10.398438-24 24v24h-16v-24c0-22.398438 17.601562-40 40-40s40 17.601562 40 40zm0 0" fill="#ddad6f"/><path d="m200 232h16v32h-16zm0 0" fill="#239172"/><path d="m256 200h-8v-16c0-22.398438-17.601562-40-40-40s-40 17.601562-40 40v16h-8c-8.800781 0-16 7.199219-16 16v72c0 8.800781 7.199219 16 16 16h96c8.800781 0 16-7.199219 16-16v-72c0-8.800781-7.199219-16-16-16zm-72-16c0-13.601562 10.398438-24 24-24s24 10.398438 24 24v16h-48zm-24 104v-72h96v72zm0 0"/><path d="m440 40h-176v-16c0-13.601562-10.398438-24-24-24h-176c-13.601562 0-24 10.398438-24 24v32h16v-32c0-4.800781 3.199219-8 8-8h176c4.800781 0 8 3.199219 8 8v32h192c13.601562 0 24 10.398438 24 24v264c0 13.601562-10.398438 24-24 24s-24-10.398438-24-24v-224c0-22.398438-17.601562-40-40-40h-336c-22.398438 0-40 17.601562-40 40v224c0 22.398438 17.601562 40 40 40h400c22.398438 0 40-17.601562 40-40v-264c0-22.398438-17.601562-40-40-40zm-400 328c-13.601562 0-24-10.398438-24-24v-224c0-13.601562 10.398438-24 24-24h336c13.601562 0 24 10.398438 24 24v224c0 8.800781 3.199219 16.800781 8 24zm0 0"/><path d="m432 96h16v248h-16zm0 0"/><path d="m208 112c-66.398438 0-120 53.601562-120 120s53.601562 120 120 120 120-53.601562 120-120-53.601562-120-120-120zm0 224c-57.601562 0-104-46.398438-104-104s46.398438-104 104-104 104 46.398438 104 104-46.398438 104-104 104zm0 0"/><path d="m200 232h16v32h-16zm0 0"/></svg>