<svg id="Capa_1" enable-background="new 0 0 512 512" height="512" viewBox="0 0 512 512" width="512" xmlns="http://www.w3.org/2000/svg"><g><g><path d="m416.616 375.2h-321.232c-5.579 0-10.102-4.523-10.102-10.102v-76.772c0-5.579 4.523-10.102 10.102-10.102h321.232c5.579 0 10.102 4.523 10.102 10.102v76.772c0 5.579-4.523 10.102-10.102 10.102z" fill="#a2aae2"/></g><g><path d="m416.616 375.2h-12.122v-96.976h12.122c5.579 0 10.102 4.523 10.102 10.102v76.772c0 5.579-4.523 10.102-10.102 10.102z" fill="#8993da"/></g><g><path d="m117.608 310.549h32.325v32.325h-32.325z" fill="#95d6a4" transform="matrix(0 1 -1 0 460.482 192.941)"/></g><g><path d="m182.258 310.549h32.325v32.325h-32.325z" fill="#e28086" transform="matrix(0 1 -1 0 525.133 128.291)"/></g><g><path d="m104.476 375.2h303.049v32.325h-303.049z" fill="#5766cb"/></g><g><path d="m416.616 504.5h-321.232c-5.579 0-10.102-4.523-10.102-10.102v-76.772c0-5.579 4.523-10.102 10.102-10.102h321.232c5.579 0 10.102 4.523 10.102 10.102v76.772c0 5.58-4.523 10.102-10.102 10.102z" fill="#a2aae2"/></g><g><path d="m416.616 504.5h-12.122v-96.976h12.122c5.579 0 10.102 4.523 10.102 10.102v76.772c0 5.58-4.523 10.102-10.102 10.102z" fill="#8993da"/></g><g><path d="m117.608 439.85h32.325v32.325h-32.325z" fill="#95d6a4" transform="matrix(0 1 -1 0 589.783 322.242)"/></g><g><path d="m182.258 439.85h32.325v32.325h-32.325z" fill="#e28086" transform="matrix(0 1 -1 0 654.434 257.592)"/></g><g><g><path d="m239.838 85.283-21.428 11.734c-12.948 7.091-20.999 20.678-20.999 35.44v52.899c0 10.636 4.193 20.842 11.67 28.406l21.115 21.36c6.816 6.896 16.109 10.776 25.805 10.776 9.696 0 18.988-3.881 25.805-10.776l21.115-21.36c7.477-7.564 11.67-17.771 11.67-28.406v-52.899c0-14.762-8.051-28.35-20.999-35.44l-21.428-11.734z" fill="#ffe07d"/></g><g><path d="m232.261 219.635c-6.795 0-13.393-.833-19.716-2.367l17.65 17.855c6.816 6.896 16.109 10.776 25.805 10.776s18.988-3.881 25.805-10.776l21.115-21.36c7.477-7.564 11.67-17.771 11.67-28.406v-36.089c-6.231 39.864-40.715 70.367-82.329 70.367z" fill="#ffd064"/></g><g><path d="m239.838 52.958h32.325v32.325h-32.325z" fill="#2b3890"/></g><g><path d="m304.488 7.5-32.325 15.152v62.63l20.697-9.702c7.096-3.326 11.628-10.456 11.628-18.293z" fill="#dd636e"/></g><g><path d="m207.512 7.5 32.325 15.152v62.63l-20.697-9.702c-7.096-3.326-11.628-10.456-11.628-18.293z" fill="#e28086"/></g></g><g><g><path d="m379.24 74.171-16.163 12.122c-10.175 7.631-16.163 19.607-16.163 32.325v40.413c0 7.197 2.402 14.189 6.825 19.866l18.013 23.122c5.68 7.291 14.406 11.555 23.649 11.555 9.243 0 17.969-4.263 23.649-11.555l18.013-23.122c4.423-5.678 6.825-12.669 6.825-19.866v-40.413c0-12.718-5.988-24.694-16.163-32.325l-16.163-12.122z" fill="#6b61b1"/></g><g><path d="m376.715 182.259c-8.226 0-16.115-1.428-23.45-4.027.162.22.307.45.475.666l18.013 23.122c5.68 7.291 14.406 11.555 23.649 11.555s17.969-4.263 23.649-11.555l18.013-23.122c4.423-5.678 6.825-12.669 6.825-19.866v-26.545c-8.75 28.804-35.509 49.772-67.174 49.772z" fill="#5e54ac"/></g><g><path d="m379.24 41.846h32.325v32.325h-32.325z" fill="#2b3890"/></g><g><path d="m443.89 7.5-32.325 15.152v51.518l20.697-9.702c7.096-3.326 11.628-10.456 11.628-18.293z" fill="#dd636e"/></g><g><path d="m346.915 7.5 32.325 15.152v51.518l-20.697-9.702c-7.096-3.326-11.628-10.456-11.628-18.293z" fill="#e28086"/></g></g><g><g><path d="m100.435 74.171-16.162 12.122c-10.175 7.631-16.163 19.607-16.163 32.325v40.413c0 7.197 2.402 14.189 6.825 19.866l18.013 23.122c5.68 7.291 14.406 11.555 23.649 11.555 9.243 0 17.969-4.263 23.649-11.555l18.013-23.122c4.423-5.678 6.825-12.669 6.825-19.866v-40.413c0-12.718-5.988-24.694-16.163-32.325l-16.161-12.122z" fill="#6b61b1"/></g><g><path d="m97.91 182.259c-8.226 0-16.115-1.428-23.45-4.027.162.22.307.45.475.666l18.013 23.122c5.68 7.291 14.406 11.555 23.649 11.555s17.969-4.263 23.649-11.555l18.013-23.122c4.423-5.678 6.825-12.669 6.825-19.866v-26.545c-8.75 28.804-35.509 49.772-67.174 49.772z" fill="#5e54ac"/></g><g><path d="m100.435 41.846h32.325v32.325h-32.325z" fill="#2b3890"/></g><g><path d="m165.086 7.5-32.326 15.153v51.518l20.697-9.702c7.096-3.326 11.628-10.456 11.628-18.293v-38.676z" fill="#dd636e"/></g><g><path d="m68.11 7.5 32.325 15.152v51.518l-20.697-9.7c-7.096-3.327-11.628-10.457-11.628-18.294z" fill="#e28086"/></g></g><g><path d="m388.393 350.374h6c4.143 0 7.5-3.358 7.5-7.5s-3.357-7.5-7.5-7.5h-6c-4.143 0-7.5 3.358-7.5 7.5s3.357 7.5 7.5 7.5z"/><path d="m302.586 335.374h-13.548c-4.143 0-7.5 3.358-7.5 7.5s3.357 7.5 7.5 7.5h13.548c4.143 0 7.5-3.358 7.5-7.5s-3.357-7.5-7.5-7.5z"/><path d="m338.715 350.374h13.549c4.143 0 7.5-3.358 7.5-7.5s-3.357-7.5-7.5-7.5h-13.549c-4.143 0-7.5 3.358-7.5 7.5s3.357 7.5 7.5 7.5z"/><path d="m246.908 350.374h6c4.143 0 7.5-3.358 7.5-7.5s-3.357-7.5-7.5-7.5h-6c-4.143 0-7.5 3.358-7.5 7.5s3.358 7.5 7.5 7.5z"/><path d="m246.908 318.049h6c4.143 0 7.5-3.358 7.5-7.5s-3.357-7.5-7.5-7.5h-6c-4.143 0-7.5 3.358-7.5 7.5s3.358 7.5 7.5 7.5z"/><path d="m338.715 318.049h13.548c4.143 0 7.5-3.358 7.5-7.5s-3.357-7.5-7.5-7.5h-13.548c-4.143 0-7.5 3.358-7.5 7.5s3.357 7.5 7.5 7.5z"/><path d="m302.586 303.049h-13.549c-4.143 0-7.5 3.358-7.5 7.5s3.357 7.5 7.5 7.5h13.549c4.143 0 7.5-3.358 7.5-7.5s-3.357-7.5-7.5-7.5z"/><path d="m388.393 318.049h6c4.143 0 7.5-3.358 7.5-7.5s-3.357-7.5-7.5-7.5h-6c-4.143 0-7.5 3.358-7.5 7.5s3.357 7.5 7.5 7.5z"/><path d="m110.108 310.549v32.325c0 4.142 3.357 7.5 7.5 7.5h32.325c4.143 0 7.5-3.358 7.5-7.5v-32.325c0-4.142-3.357-7.5-7.5-7.5h-32.325c-4.143 0-7.5 3.358-7.5 7.5zm15 7.5h17.325v17.325h-17.325z"/><path d="m214.583 350.374c4.143 0 7.5-3.358 7.5-7.5v-32.325c0-4.142-3.357-7.5-7.5-7.5h-32.325c-4.143 0-7.5 3.358-7.5 7.5v32.325c0 4.142 3.357 7.5 7.5 7.5zm-24.825-32.325h17.325v17.325h-17.325z"/><path d="m416.62 270.721h-265.35c-4.143 0-7.5 3.358-7.5 7.5s3.357 7.5 7.5 7.5h265.35c1.434 0 2.6 1.171 2.6 2.61v76.77c0 1.434-1.166 2.6-2.6 2.6h-321.24c-1.434 0-2.6-1.167-2.6-2.6v-76.77c0-1.439 1.166-2.61 2.6-2.61h20.89c4.143 0 7.5-3.358 7.5-7.5s-3.357-7.5-7.5-7.5h-20.89c-9.704 0-17.6 7.9-17.6 17.61v76.77c0 9.705 7.896 17.6 17.6 17.6h1.596v17.32h-1.596c-9.704 0-17.6 7.9-17.6 17.61v76.77c0 9.705 7.896 17.6 17.6 17.6h321.24c9.704 0 17.6-7.895 17.6-17.6v-76.77c0-9.71-7.896-17.61-17.6-17.61h-1.596v-17.32h1.596c9.704 0 17.6-7.896 17.6-17.6v-76.77c0-9.71-7.896-17.61-17.6-17.61zm-16.595 129.299h-14.374c-4.143 0-7.5 3.358-7.5 7.5s3.357 7.5 7.5 7.5h30.97c1.434 0 2.6 1.171 2.6 2.61v76.77c0 1.434-1.166 2.6-2.6 2.6h-321.241c-1.434 0-2.6-1.167-2.6-2.6v-76.77c0-1.439 1.166-2.61 2.6-2.61h255.271c4.143 0 7.5-3.358 7.5-7.5s-3.357-7.5-7.5-7.5h-238.675v-17.32h288.049z"/><path d="m388.393 479.675h6c4.143 0 7.5-3.358 7.5-7.5s-3.357-7.5-7.5-7.5h-6c-4.143 0-7.5 3.358-7.5 7.5s3.357 7.5 7.5 7.5z"/><path d="m302.586 464.675h-13.548c-4.143 0-7.5 3.358-7.5 7.5s3.357 7.5 7.5 7.5h13.548c4.143 0 7.5-3.358 7.5-7.5s-3.357-7.5-7.5-7.5z"/><path d="m352.264 464.675h-13.549c-4.143 0-7.5 3.358-7.5 7.5s3.357 7.5 7.5 7.5h13.549c4.143 0 7.5-3.358 7.5-7.5s-3.358-7.5-7.5-7.5z"/><path d="m252.908 464.675h-6c-4.143 0-7.5 3.358-7.5 7.5s3.357 7.5 7.5 7.5h6c4.143 0 7.5-3.358 7.5-7.5s-3.357-7.5-7.5-7.5z"/><path d="m252.908 432.35h-6c-4.143 0-7.5 3.358-7.5 7.5s3.357 7.5 7.5 7.5h6c4.143 0 7.5-3.358 7.5-7.5s-3.357-7.5-7.5-7.5z"/><path d="m302.586 432.35h-13.549c-4.143 0-7.5 3.358-7.5 7.5s3.357 7.5 7.5 7.5h13.549c4.143 0 7.5-3.358 7.5-7.5s-3.357-7.5-7.5-7.5z"/><path d="m352.263 432.35h-13.548c-4.143 0-7.5 3.358-7.5 7.5s3.357 7.5 7.5 7.5h13.548c4.143 0 7.5-3.358 7.5-7.5s-3.358-7.5-7.5-7.5z"/><path d="m388.393 447.35h6c4.143 0 7.5-3.358 7.5-7.5s-3.357-7.5-7.5-7.5h-6c-4.143 0-7.5 3.358-7.5 7.5s3.357 7.5 7.5 7.5z"/><path d="m149.933 432.35h-32.325c-4.143 0-7.5 3.358-7.5 7.5v32.325c0 4.142 3.357 7.5 7.5 7.5h32.325c4.143 0 7.5-3.358 7.5-7.5v-32.325c0-4.142-3.358-7.5-7.5-7.5zm-7.5 32.325h-17.325v-17.325h17.325z"/><path d="m214.583 432.35h-32.325c-4.143 0-7.5 3.358-7.5 7.5v32.325c0 4.142 3.357 7.5 7.5 7.5h32.325c4.143 0 7.5-3.358 7.5-7.5v-32.325c0-4.142-3.357-7.5-7.5-7.5zm-7.5 32.325h-17.325v-17.325h17.325z"/><path d="m224.862 240.395c8.17 8.264 19.519 13.004 31.139 13.004s22.969-4.74 31.139-13.004l21.114-21.359c8.923-9.026 13.837-20.987 13.837-33.679v-52.898c0-17.509-9.54-33.609-24.896-42.019l-8.468-4.637 7.317-3.43c9.687-4.541 15.945-14.387 15.945-25.084v-49.789c0-2.565-1.312-4.953-3.477-6.33-2.166-1.377-4.884-1.55-7.207-.461l-32.325 15.153c-2.634 1.235-4.316 3.882-4.316 6.791v22.805h-17.326v-22.805c0-2.909-1.683-5.556-4.316-6.791l-32.326-15.153c-2.324-1.089-5.042-.915-7.207.461s-3.477 3.764-3.477 6.33v49.788c0 10.697 6.259 20.543 15.945 25.084l7.317 3.43-8.467 4.637c-15.356 8.409-24.896 24.51-24.896 42.019v52.898c0 12.692 4.914 24.653 13.837 33.679zm54.801-212.975 17.325-8.121v37.989c0 4.905-2.87 9.42-7.312 11.502l-10.013 4.694zm-15 33.038v17.325h-17.326v-17.325zm-49.651-3.17v-37.989l17.325 8.121v46.064l-10.013-4.693c-4.442-2.083-7.312-6.598-7.312-11.503zm-10.102 75.17c0-12.026 6.553-23.086 17.102-28.862l19.744-10.812h28.488l19.744 10.812c10.549 5.776 17.102 16.836 17.102 28.862v52.898c0 8.718-3.375 16.934-9.505 23.134l-21.114 21.36c-5.37 5.433-12.832 8.549-20.471 8.549s-15.101-3.116-20.471-8.549l-21.114-21.36c-6.13-6.2-9.505-14.416-9.505-23.133z"/><path d="m242.868 156.928h26.264c4.143 0 7.5-3.358 7.5-7.5s-3.357-7.5-7.5-7.5h-26.264c-4.143 0-7.5 3.358-7.5 7.5s3.358 7.5 7.5 7.5z"/><path d="m242.868 189.253h26.264c4.143 0 7.5-3.358 7.5-7.5s-3.357-7.5-7.5-7.5h-26.264c-4.143 0-7.5 3.358-7.5 7.5s3.358 7.5 7.5 7.5z"/><path d="m451.391 46.176v-38.676c0-2.565-1.312-4.953-3.477-6.33-2.166-1.377-4.884-1.55-7.207-.461l-32.325 15.152c-2.634 1.235-4.316 3.882-4.316 6.791v11.693h-17.326v-11.692c0-2.909-1.683-5.556-4.316-6.791l-32.325-15.153c-2.324-1.089-5.042-.915-7.207.461s-3.477 3.764-3.477 6.33v38.676c0 10.697 6.259 20.543 15.944 25.084l9.391 4.402-6.168 4.626c-12.005 8.998-19.172 23.328-19.172 38.332v40.41c0 8.814 2.987 17.506 8.413 24.479l18.011 23.121c7.149 9.177 17.926 14.44 29.566 14.44 5.663 0 11.351-1.313 16.453-3.802 5.09-2.488 9.623-6.166 13.111-10.637l18.024-23.125c5.417-6.961 8.4-15.653 8.4-24.476v-24.68c0-4.142-3.357-7.5-7.5-7.5s-7.5 3.358-7.5 7.5v24.68c0 5.502-1.86 10.923-5.234 15.259l-18.019 23.118c-2.094 2.684-4.815 4.892-7.864 6.382-3.061 1.493-6.474 2.281-9.872 2.281-6.982 0-13.446-3.156-17.733-8.659l-18.008-23.117c-3.385-4.35-5.249-9.771-5.249-15.264v-40.41c0-10.306 4.923-20.148 13.17-26.33l14.16-10.62h27.33l14.17 10.627c3.906 2.92 7.164 6.765 9.423 11.117 1.909 3.678 6.439 5.111 10.111 3.203 3.677-1.908 5.11-6.435 3.203-10.111-3.294-6.348-8.051-11.958-13.747-16.216l-6.172-4.629 9.387-4.4c9.688-4.541 15.947-14.388 15.947-25.085zm-47.325 3.17v17.324h-17.326v-17.324zm-49.651-3.17v-26.877l17.325 8.121v34.952l-10.014-4.693c-4.441-2.082-7.311-6.597-7.311-11.503zm74.663 11.503-10.013 4.694v-34.953l17.325-8.121v26.877c.001 4.906-2.869 9.421-7.312 11.503z"/><path d="m408.534 120.21h-26.264c-4.143 0-7.5 3.358-7.5 7.5s3.357 7.5 7.5 7.5h26.264c4.143 0 7.5-3.358 7.5-7.5s-3.357-7.5-7.5-7.5z"/><path d="m408.534 152.535h-26.264c-4.143 0-7.5 3.358-7.5 7.5s3.357 7.5 7.5 7.5h26.264c4.143 0 7.5-3.358 7.5-7.5s-3.357-7.5-7.5-7.5z"/><path d="m116.598 221.074c11.637 0 22.413-5.265 29.566-14.445l18.012-23.121c5.423-6.96 8.409-15.652 8.409-24.476v-40.413c0-14.999-7.163-29.326-19.162-38.325l-6.174-4.63 9.392-4.403c9.686-4.541 15.944-14.387 15.944-25.084v-38.677c0-2.565-1.312-4.953-3.477-6.33-2.166-1.377-4.884-1.55-7.207-.461l-32.325 15.152c-2.634 1.235-4.316 3.882-4.316 6.791v11.693h-17.325v-11.692c0-2.909-1.683-5.556-4.316-6.791l-32.326-15.153c-2.324-1.089-5.042-.915-7.207.461-2.165 1.377-3.476 3.765-3.476 6.33v38.676c0 10.697 6.259 20.543 15.945 25.084l9.391 4.402-6.173 4.63c-11.999 9-19.163 23.327-19.163 38.325v40.413c0 8.822 2.986 17.515 8.409 24.476l18.014 23.122c7.152 9.181 17.928 14.446 29.565 14.446zm23.662-193.654 17.325-8.121v26.877c0 4.905-2.87 9.42-7.312 11.502l-10.014 4.694v-34.952zm-15 21.926v17.325h-17.325v-17.325zm-49.65-3.17v-26.877l17.325 8.121v34.952l-10.013-4.694c-4.442-2.081-7.312-6.596-7.312-11.502zm0 112.855v-40.413c0-10.302 4.921-20.143 13.163-26.325l14.162-10.622h27.325l14.163 10.622c8.241 6.182 13.162 16.022 13.162 26.325v40.413c0 5.5-1.861 10.918-5.241 15.257l-18.013 23.122c-4.29 5.506-10.754 8.664-17.733 8.664s-13.443-3.158-17.733-8.664l-18.013-23.121c-3.381-4.34-5.242-9.758-5.242-15.258z"/><path d="m103.466 135.21h26.264c4.143 0 7.5-3.358 7.5-7.5s-3.357-7.5-7.5-7.5h-26.264c-4.143 0-7.5 3.358-7.5 7.5s3.357 7.5 7.5 7.5z"/><path d="m129.73 167.535c4.143 0 7.5-3.358 7.5-7.5s-3.357-7.5-7.5-7.5h-26.264c-4.143 0-7.5 3.358-7.5 7.5s3.357 7.5 7.5 7.5z"/></g></g></svg>