<?xml version="1.0" encoding="iso-8859-1"?>
<!-- Generator: Adobe Illustrator 19.0.0, SVG Export Plug-In . SVG Version: 6.00 Build 0)  -->
<svg version="1.1" id="Capa_1" xmlns="http://www.w3.org/2000/svg" xmlns:xlink="http://www.w3.org/1999/xlink" x="0px" y="0px"
	 viewBox="0 0 512 512" style="enable-background:new 0 0 512 512;" xml:space="preserve">
<path style="fill:#FFE89C;" d="M393.792,193.917c0,0,0,0,0,0.01v78.862c0,8.277-6.718,14.995-14.995,14.995
	c-8.277,0-14.995-6.718-14.995-14.995v-68.636l29.35-14.505c0.28,0.89,0.47,1.819,0.56,2.779
	C393.762,192.927,393.792,193.417,393.792,193.917z"/>
<path style="fill:#FFC477;" d="M512,149.823v212.355c0,13.445-7.467,25.511-19.483,31.519l-226.18,114.61
	c-4.928,2.449-10.316,3.679-15.694,3.679h-0.22c-5.538-0.04-11.066-1.359-16.084-3.979l-0.09-0.05L18.903,393.667
	C7.247,387.559,0,375.603,0,362.438V149.563c0-6.008,1.499-11.746,4.239-16.804c3.279-6.038,8.317-11.096,14.665-14.415
	L234.338,4.004c9.976-5.208,21.932-5.318,31.999-0.3l0.1,0.04l226.081,114.56c6.638,3.319,11.886,8.487,15.245,14.715
	C510.501,138.067,512,143.805,512,149.823z"/>
<path style="fill:#FFB655;" d="M512,149.823v212.355c0,13.445-7.467,25.511-19.483,31.519l-226.18,114.61
	c-4.928,2.449-10.316,3.679-15.694,3.679h-0.22V260.184l257.34-127.165C510.501,138.067,512,143.805,512,149.823z"/>
<path style="fill:#FFD399;" d="M507.762,133.019l-114.6,56.63l-28.19,13.935l-114.55,56.6L4.239,132.759
	c3.279-6.038,8.317-11.096,14.665-14.415l92.358-49.023l32.019-16.994l91.058-48.323c5.028-2.629,10.556-3.959,16.084-3.989
	c5.458-0.03,10.916,1.2,15.914,3.689l0.1,0.04l226.081,114.56C499.155,121.623,504.403,126.791,507.762,133.019z"/>
<path style="fill:#FFFCE5;" d="M393.792,193.917c0,0,0,0,0,0.01v78.862c0,8.277-6.718,14.995-14.995,14.995
	c-8.277,0-14.995-6.718-14.995-14.995v-69.825l-113.38-59.999L111.261,69.321l32.019-16.994l107.142,56.7l135.392,71.645
	c0.02,0.01,0.04,0.02,0.06,0.03c0.29,0.16,0.57,0.34,0.85,0.51c0.15,0.09,0.31,0.18,0.46,0.28l0.01,0.01
	c1.17,0.79,2.199,1.729,3.069,2.769c0.04,0.05,0.08,0.09,0.11,0.13c0.22,0.26,0.41,0.54,0.61,0.81c0.09,0.13,0.19,0.25,0.28,0.39
	c0.14,0.2,0.25,0.41,0.38,0.62c0.13,0.22,0.27,0.44,0.39,0.67c0.07,0.13,0.13,0.26,0.19,0.39c0.16,0.32,0.31,0.64,0.45,0.97
	c0.02,0.05,0.03,0.09,0.05,0.13c0.17,0.42,0.31,0.84,0.43,1.27c0.28,0.89,0.47,1.819,0.56,2.779
	C393.762,192.927,393.792,193.417,393.792,193.917z"/>
<path style="fill:#B5B51F;" d="M176.08,301.396c-4.191-7.143-13.378-9.536-20.521-5.346l-46.437,27.243l-9.751-17.666
	c-4.002-7.249-13.123-9.884-20.374-5.882s-9.884,13.123-5.882,20.374l17.189,31.143c0.04,0.073,0.086,0.14,0.127,0.212
	c0.024,0.043,0.043,0.087,0.068,0.13c0.057,0.098,0.121,0.189,0.18,0.285c0.089,0.145,0.179,0.29,0.273,0.431
	c0.095,0.143,0.193,0.282,0.292,0.42c0.1,0.14,0.2,0.28,0.304,0.416c0.103,0.134,0.21,0.264,0.316,0.394
	c0.108,0.131,0.215,0.262,0.326,0.388c0.112,0.127,0.227,0.249,0.343,0.371c0.113,0.12,0.226,0.241,0.343,0.357
	c0.122,0.121,0.248,0.237,0.373,0.353c0.117,0.108,0.233,0.217,0.352,0.321c0.133,0.116,0.271,0.226,0.408,0.337
	c0.118,0.095,0.235,0.192,0.356,0.284c0.144,0.109,0.291,0.212,0.438,0.315c0.121,0.085,0.24,0.171,0.363,0.252
	c0.152,0.1,0.308,0.194,0.464,0.289c0.123,0.075,0.245,0.152,0.37,0.223c0.16,0.091,0.324,0.175,0.487,0.26
	c0.125,0.065,0.249,0.133,0.376,0.195c0.166,0.081,0.336,0.154,0.505,0.229c0.129,0.057,0.256,0.117,0.386,0.17
	c0.168,0.069,0.34,0.129,0.51,0.192c0.135,0.049,0.268,0.102,0.404,0.148c0.169,0.057,0.341,0.105,0.511,0.155
	c0.14,0.042,0.279,0.087,0.421,0.124c0.168,0.044,0.338,0.08,0.507,0.118c0.147,0.034,0.294,0.072,0.442,0.101
	c0.161,0.032,0.324,0.054,0.486,0.081c0.159,0.026,0.316,0.056,0.476,0.077c0.153,0.02,0.306,0.03,0.46,0.046
	c0.17,0.017,0.34,0.038,0.51,0.049c0.135,0.009,0.27,0.008,0.405,0.013c0.188,0.007,0.375,0.019,0.563,0.019
	c0.317,0,0.634-0.011,0.951-0.031c0.081-0.005,0.162-0.016,0.243-0.023c0.233-0.019,0.466-0.038,0.699-0.068
	c0.12-0.015,0.239-0.038,0.358-0.056c0.194-0.03,0.387-0.058,0.58-0.095c0.138-0.027,0.276-0.061,0.414-0.092
	c0.173-0.039,0.346-0.076,0.518-0.121c0.149-0.039,0.296-0.084,0.444-0.128c0.161-0.047,0.321-0.093,0.481-0.146
	c0.152-0.05,0.302-0.107,0.453-0.162c0.155-0.057,0.31-0.113,0.464-0.176c0.151-0.061,0.3-0.128,0.45-0.194
	c0.152-0.068,0.305-0.136,0.456-0.209c0.146-0.071,0.29-0.146,0.434-0.222c0.096-0.05,0.194-0.095,0.289-0.148
	c0.04-0.022,0.076-0.05,0.117-0.072c0.075-0.042,0.151-0.078,0.225-0.122l59.714-35.033
	C177.877,317.727,180.271,308.539,176.08,301.396z"/>
<g>
</g>
<g>
</g>
<g>
</g>
<g>
</g>
<g>
</g>
<g>
</g>
<g>
</g>
<g>
</g>
<g>
</g>
<g>
</g>
<g>
</g>
<g>
</g>
<g>
</g>
<g>
</g>
<g>
</g>
</svg>
