<svg id="Layer_1" enable-background="new 0 0 256 256" height="512" viewBox="0 0 256 256" width="512" xmlns="http://www.w3.org/2000/svg"><g id="Layer_10"><g><path d="m78.8 188.7c4.5 4.5 4.5 11.8 0 16.3l-45.1 45.1c-4.5 4.5-11.8 4.5-16.3 0-4.5-4.5-4.5-11.8 0-16.3l45.1-45.1c4.5-4.5 11.8-4.5 16.3 0z" fill="#f5c84c"/><path d="m94.3 173.2c-1.4-1.4-2.7-2.8-3.9-4.2l-16.7 16.7c4.2 1.1 7.4 4.5 8.3 8.7l16.9-16.9c-1.6-1.4-3.2-2.8-4.6-4.3z" fill="#c7d7e5"/><path d="m74.8 209 4-4c4.5-4.5 4.5-11.8 0-16.3s-11.8-4.5-16.3 0l-4 4z" fill="#edb311"/><path d="m220.4 114.5c0-14.4-11.6-26.1-26-26.1s-26.1 11.6-26.1 26c0 1 .1 2 .2 3.1l22.9 22.9c14.3 1.7 27.2-8.6 28.9-22.9 0-1 .1-2 .1-3z" fill="#dae6f1"/><path d="m117 88.4c-14.4 0-26.1 11.7-26.1 26.1s11.7 26.1 26.1 26.1 26.1-11.7 26.1-26.1c0-.9 0-1.8-.1-2.6l-23.3-23.3c-.9-.1-1.8-.2-2.7-.2z" fill="#dae6f1"/><path d="m173.7 98.5c1.9-2.4 4.2-4.5 6.8-6.1-.6-3.9-4.1-6.8-8-6.9h-33.7c-.7 0-1.4.1-2.1.3l12.7 12.7z" fill="#5290db"/><path d="m161.6 130.5-18.7-18.7c.7 6.7-1.2 13.4-5.4 18.7z" fill="#29589f"/><path d="m173.7 98.5h-24.3l19 19c-.8-6.8 1.1-13.6 5.3-19z" fill="#29589f"/><path d="m117 98.4c-8.9 0-16.1 7.2-16.1 16.1s7.2 16.1 16.1 16.1 16.1-7.2 16.1-16.1-7.2-16.1-16.1-16.1z" fill="#70d6f9"/><path d="m194.3 98.4c-8.9 0-16.1 7.2-16.1 16.1s7.2 16.1 16.1 16.1 16.1-7.2 16.1-16.1-7.2-16.1-16.1-16.1z" fill="#70d6f9"/><path d="m216.7 50.8c-33.8-33.8-88.6-33.8-122.4 0s-33.8 88.6 0 122.4 88.6 33.8 122.4 0c33.8-33.8 33.8-88.6 0-122.4zm-18.3 120.4c-32.6 23.8-78.4 16.5-102.1-16.2-18.6-25.6-18.6-60.4 0-86 .8-1.1 2.3-1.3 3.3-.5.1.1.2.2.3.2l98.9 98.9c.9.9.9 2.4 0 3.4-.2.1-.3.2-.4.2zm14.1-13.3c-.8 1-2.3 1.2-3.3.4-.1-.1-.1-.1-.2-.2l-99.5-99.5c-.9-.9-.9-2.4 0-3.4l.2-.2c31.5-25.3 77.5-20.3 102.8 11.2 21.5 26.8 21.5 64.9 0 91.7z" fill="#fc657e"/><path d="m190.9 4.9h-2.1v-2.1c0-1.5-1.3-2.8-2.8-2.8s-2.8 1.3-2.8 2.8v2.1h-2.1c-1.5 0-2.8 1.3-2.8 2.8s1.3 2.8 2.8 2.8h2.1v2.1c0 1.5 1.3 2.8 2.8 2.8s2.8-1.3 2.8-2.8v-2.1h2.1c1.5 0 2.8-1.3 2.8-2.8 0-1.6-1.2-2.8-2.8-2.8z" fill="#70d6f9"/><path d="m123.8 211.9c-4-.7-7.1-3.8-7.9-7.7 0-.1-.1-.2-.2-.1-.1 0-.1.1-.1.1-.8 4-3.9 7-7.9 7.7-.1 0-.2.1-.1.2 0 .1.1.1.1.1 4 .7 7.1 3.8 7.9 7.7 0 .1.1.2.2.1.1 0 .1-.1.1-.1.8-4 3.9-7 7.9-7.7.1 0 .2-.1.1-.2.1 0 0-.1-.1-.1z" fill="#f5c84c"/><circle cx="209" cy="25" fill="#f5c84c" r="3"/><circle cx="143" cy="225" fill="#ef4460" r="3"/><circle cx="62" cy="160" fill="#87d147" r="3"/><path d="m209 58.5c-27.3-27.4-70.8-29.7-100.9-5.5-2.1 1.7-2.4 4.8-.8 6.9.1.1.2.3.3.4l99.5 99.5c1.9 1.9 5 1.9 6.9 0 .1-.1.2-.3.4-.4 24.3-30.1 21.9-73.6-5.4-100.9zm-56 37.5h-2.6l-8-8h10.6zm12.9 15.4-10.5-10.4h13.7c-1.8 3.2-2.8 6.8-3.2 10.4zm-7.9-15.4v-8h14.5c2.2 0 4.2 1.3 5.1 3.3-1.9 1.4-3.6 2.9-5.1 4.7zm22.7 18.5c0-7.5 6.1-13.6 13.6-13.6s13.6 6.1 13.6 13.6-6.1 13.6-13.6 13.6-13.6-6.1-13.6-13.6zm11.7 23.5-7.4-7.4c8.9 5.1 20.3 2.1 25.5-6.8s2.1-20.3-6.8-25.5c-8.9-5.1-20.3-2.1-25.5 6.8-3.3 5.8-3.3 12.9 0 18.6l-7.4-7.4c-1-13 8.7-24.3 21.7-25.3s24.3 8.7 25.3 21.7-8.7 24.3-21.7 25.3c-.6 0-1.2.1-1.9.1-.5 0-1.1 0-1.8-.1zm18.2 18.2-13.3-13.3c15.7-1.7 27-15.8 25.4-31.5-1.7-15.7-15.8-27-31.5-25.4-3.2.3-6.4 1.2-9.3 2.7-1.8-3.5-5.5-5.7-9.4-5.7h-14.5v-1.5c0-1.4-1.1-2.5-2.5-2.5s-2.5 1.1-2.5 2.5v1.5h-14.2c-.4 0-.9 0-1.3.1l-26.2-26.2c30.5-24.4 74.9-19.5 99.3 11 20.7 25.8 20.7 62.5 0 88.3z"/><path d="m218.4 49.1c-34.8-34.8-91.1-34.8-125.9 0-32.5 32.5-34.9 84.4-5.6 119.8l-14 14.1c-4.4-.7-8.9.7-12.1 3.9l-45.2 45.1c-5.5 5.5-5.5 14.4 0 19.9s14.4 5.5 19.9 0l45.1-45.1c3-3 4.5-7.3 4-11.5l14.4-14.4c38 31.2 94.1 25.7 125.3-12.4 29-35.4 26.5-87-5.9-119.4zm-186.4 199.2c-3.5 3.5-9.3 3.5-12.8 0-3.5-3.5-3.5-9.3 0-12.8l39.4-39.4 12.7 12.9zm45.1-45.1-2.2 2.2-12.9-12.7 2.2-2.2c3.5-3.5 9.3-3.5 12.8.1 3.6 3.4 3.6 9.1.1 12.6zm5.8-13.3c-1.2-2.1-2.8-3.8-4.9-5l12.2-12.2c.8.8 1.5 1.6 2.3 2.4.8.8 1.7 1.7 2.7 2.6zm132-18.4c-31.2 31.1-81.1 32.9-114.4 4.1-37.4-32.5-38.3-89-4.4-122.9 15.7-15.9 37.1-24.7 59.4-24.7 74.3 0 112.4 90.5 59.4 143.5z"/><path d="m101.6 67c-1.9-1.9-5-1.9-6.9 0-.2.2-.3.4-.5.6-10.5 14.5-15.5 32.2-14.2 50.1 4.3 58.7 71.9 90.6 119.9 55.6 2.2-1.6 2.7-4.6 1.1-6.8-.1-.2-.3-.4-.5-.6zm43.8 50.8 10.2 10.2h-13.4c1.7-3.2 2.8-6.6 3.2-10.2zm-14.8-3.3c0 7.5-6.1 13.6-13.6 13.6s-13.6-6.1-13.6-13.6 6.1-13.6 13.6-13.6 13.6 6.1 13.6 13.6zm-12.1-23.5 7.1 7.1c-9.1-4.8-20.4-1.3-25.1 7.8-4.8 9.1-1.3 20.4 7.8 25.1 9.1 4.8 20.4 1.3 25.1-7.8 2.8-5.4 2.8-11.9 0-17.3l7.1 7.1c.9 13-9 24.2-22 25.1s-24.2-9-25.1-22 9-24.2 22-25.1c.5 0 1-.1 1.6-.1.5 0 1 0 1.5.1zm-33.5 26.3c-1.2-16.6 3.4-33.2 13.2-46.7l15.5 15.5c-15.7 1.8-26.9 16-25.1 31.7s16 26.9 31.7 25.1c7.2-.8 13.8-4.4 18.5-9.9h21.8l36.3 36.3c-44.7 32.4-107.9 3-111.9-52z"/></g></g></svg>