<svg id="Layer_1" enable-background="new 0 0 256 256" height="512" viewBox="0 0 256 256" width="512" xmlns="http://www.w3.org/2000/svg"><g id="Layer_80"><g><path d="m160.3 35.7h-114.9c-3.7 0-6.7 3-6.7 6.7v195.6c0 3.7 3 6.7 6.7 6.7h138.7c3.7 0 6.7-3 6.7-6.7v-171.9z" fill="#edf4fc"/><path d="m184.7 11.4h-114.9c-3.7 0-6.7 3-6.7 6.7v17.6h97.2l30.5 30.5v154.2h17.7c3.7 0 6.7-3 6.7-6.7v-171.8z" fill="#c7d7e5"/><path d="m167 66.1h23.8l-30.5-30.5v23.8c0 3.8 3 6.7 6.7 6.7z" fill="#fcdd86"/><path d="m191.4 41.9h23.8l-30.5-30.5v23.8c0 3.7 3 6.7 6.7 6.7z" fill="#f5c84c"/><path d="m26.2 18.2c4 .7 7.1 3.8 7.9 7.7 0 .1.1.2.2.1.1 0 .1-.1.1-.1.8-4 3.9-7 7.9-7.7.1 0 .2-.1.1-.2 0-.1-.1-.1-.1-.1-4-.7-7.1-3.8-7.9-7.7 0-.1-.1-.2-.2-.1-.1 0-.1.1-.1.1-.8 4-3.9 7-7.9 7.7-.1 0-.2.1-.2.2s.1.1.2.1z" fill="#70d6f9"/><circle cx="52.9" cy="3" fill="#f5c84c" r="3"/><circle cx="216.9" cy="21" fill="#87d147" r="3"/><circle cx="226.9" cy="230" fill="#f5c84c" r="3"/><path d="m207.5 251.1h2.1v2.1c0 1.5 1.3 2.8 2.8 2.8s2.8-1.3 2.8-2.8v-2.1h2.1c1.5 0 2.8-1.3 2.8-2.8s-1.3-2.8-2.8-2.8h-2.1v-2.1c0-1.5-1.3-2.8-2.8-2.8s-2.8 1.3-2.8 2.8v2.1h-2.1c-1.5 0-2.8 1.3-2.8 2.8s1.3 2.8 2.8 2.8z" fill="#ef4460"/><path d="m136.7 147.6c-.9-1.5-1.2-3.3-1-5.1 2.1-11.6-5.6-22.8-17.2-24.9s-22.8 5.6-24.9 17.2c-.5 2.5-.5 5.1 0 7.7.3 1.8-.1 3.5-1 5.1-2 3.7-.7 8.3 3 10.3.2.1.4.2.5.3 1.7.7 2.9 2.2 3.3 4v.1c.6 2.6 2.9 4.4 5.5 4.4h19c2.6 0 4.9-1.8 5.5-4.4.4-1.8 1.7-3.3 3.4-4 3.8-1.7 5.6-6.1 4-9.9.2-.4.1-.6-.1-.8z" fill="#fc657e"/><path d="m125.6 166.6h-21.4c-1.6 0-3 1.3-3 3 0 4.7 3.8 8.5 8.5 8.5h10.3c4.7 0 8.5-3.8 8.5-8.5 0-1.7-1.3-3-2.9-3z" fill="#fc657e"/><path d="m124.8 140.6c-2.9 0-5.2 2.3-5.2 5.2v2.5c0 2.3 1.9 4.1 4.1 4.1h1.1c2.9 0 5.2-2.3 5.2-5.2v-1.4c0-2.9-2.4-5.2-5.2-5.2z" fill="#ef4460"/><path d="m104.9 140.6c2.9 0 5.2 2.3 5.2 5.2v2.5c0 2.3-1.9 4.1-4.1 4.1h-1.1c-2.9 0-5.2-2.3-5.2-5.2v-1.4c0-2.9 2.4-5.2 5.2-5.2z" fill="#ef4460"/><path d="m62.3 121.5c4 0 7.2-3.7 7.2-8.3s-3.2-8.3-7.2-8.3-7.2 3.7-7.2 8.3 3.2 8.3 7.2 8.3zm0-11.6c1 0 2.2 1.4 2.2 3.3s-1.1 3.3-2.2 3.3-2.2-1.4-2.2-3.3 1.1-3.3 2.2-3.3z"/><path d="m78 121.5c1.4 0 2.5-1.1 2.5-2.5v-11.7c0-1.4-1.1-2.5-2.5-2.5h-3.5c-1.4 0-2.5 1.1-2.5 2.5s1.1 2.5 2.5 2.5h1v9.2c0 1.4 1.1 2.5 2.5 2.5z"/><path d="m168.7 121.5c1.4 0 2.5-1.1 2.5-2.5v-11.7c0-1.4-1.1-2.5-2.5-2.5h-3.5c-1.4 0-2.5 1.1-2.5 2.5s1.1 2.5 2.5 2.5h1v9.2c0 1.4 1.1 2.5 2.5 2.5z"/><path d="m92.5 121.5c4 0 7.2-3.7 7.2-8.3s-3.2-8.3-7.2-8.3-7.2 3.7-7.2 8.3 3.3 8.3 7.2 8.3zm0-11.6c1 0 2.2 1.4 2.2 3.3s-1.1 3.3-2.2 3.3-2.2-1.4-2.2-3.3 1.2-3.3 2.2-3.3z"/><path d="m138.5 121.5c1.4 0 2.5-1.1 2.5-2.5v-11.7c0-1.4-1.1-2.5-2.5-2.5h-3.5c-1.4 0-2.5 1.1-2.5 2.5s1.1 2.5 2.5 2.5h1v9.2c0 1.4 1.1 2.5 2.5 2.5z"/><path d="m153.1 121.5c4 0 7.2-3.7 7.2-8.3s-3.2-8.3-7.2-8.3-7.2 3.7-7.2 8.3 3.3 8.3 7.2 8.3zm0-11.6c1 0 2.2 1.4 2.2 3.3s-1.1 3.3-2.2 3.3-2.2-1.4-2.2-3.3 1.2-3.3 2.2-3.3z"/><path d="m62.3 167.5c4 0 7.2-3.7 7.2-8.3s-3.2-8.3-7.2-8.3-7.2 3.7-7.2 8.3 3.2 8.3 7.2 8.3zm0-11.7c1 0 2.2 1.4 2.2 3.3s-1.1 3.3-2.2 3.3-2.2-1.4-2.2-3.3 1.1-3.3 2.2-3.3z"/><path d="m78 167.5c1.4 0 2.5-1.1 2.5-2.5v-11.7c0-1.4-1.1-2.5-2.5-2.5h-3.5c-1.4 0-2.5 1.1-2.5 2.5s1.1 2.5 2.5 2.5h1v9.2c0 1.4 1.1 2.5 2.5 2.5z"/><path d="m168.7 167.5c1.4 0 2.5-1.1 2.5-2.5v-11.7c0-1.4-1.1-2.5-2.5-2.5h-3.5c-1.4 0-2.5 1.1-2.5 2.5s1.1 2.5 2.5 2.5h1v9.2c0 1.4 1.1 2.5 2.5 2.5z"/><path d="m153.1 167.5c4 0 7.2-3.7 7.2-8.3s-3.2-8.3-7.2-8.3-7.2 3.7-7.2 8.3 3.3 8.3 7.2 8.3zm0-11.7c1 0 2.2 1.4 2.2 3.3s-1.1 3.3-2.2 3.3-2.2-1.4-2.2-3.3 1.2-3.3 2.2-3.3z"/><path d="m76.4 81.9c-4 0-7.2 3.7-7.2 8.3s3.2 8.3 7.2 8.3 7.2-3.7 7.2-8.3-3.3-8.3-7.2-8.3zm0 11.6c-1 0-2.2-1.4-2.2-3.3s1.1-3.3 2.2-3.3 2.2 1.4 2.2 3.3-1.2 3.3-2.2 3.3z"/><path d="m88.6 86.9h1v9.1c0 1.4 1.1 2.5 2.5 2.5s2.5-1.1 2.5-2.5v-11.6c0-1.4-1.1-2.5-2.5-2.5h-3.5c-1.4 0-2.5 1.1-2.5 2.5s1.2 2.5 2.5 2.5z"/><path d="m106.7 98.5c4 0 7.2-3.7 7.2-8.3s-3.2-8.3-7.2-8.3-7.2 3.7-7.2 8.3 3.3 8.3 7.2 8.3zm0-11.6c1 0 2.2 1.4 2.2 3.3s-1.1 3.3-2.2 3.3-2.2-1.4-2.2-3.3 1.2-3.3 2.2-3.3z"/><path d="m58.3 86.9h1v9.1c0 1.4 1.1 2.5 2.5 2.5s2.5-1.1 2.5-2.5v-11.6c0-1.4-1.1-2.5-2.5-2.5h-3.5c-1.4 0-2.5 1.1-2.5 2.5s1.1 2.5 2.5 2.5z"/><path d="m136.9 81.9c-4 0-7.2 3.7-7.2 8.3s3.2 8.3 7.2 8.3 7.2-3.7 7.2-8.3-3.3-8.3-7.2-8.3zm0 11.6c-1 0-2.2-1.4-2.2-3.3s1.1-3.3 2.2-3.3 2.2 1.4 2.2 3.3-1.2 3.3-2.2 3.3z"/><path d="m149.1 86.9h1v9.1c0 1.4 1.1 2.5 2.5 2.5s2.5-1.1 2.5-2.5v-11.6c0-1.4-1.1-2.5-2.5-2.5h-3.5c-1.4 0-2.5 1.1-2.5 2.5s1.1 2.5 2.5 2.5z"/><path d="m160.1 90.2c0 4.6 3.2 8.3 7.2 8.3s7.2-3.7 7.2-8.3-3.2-8.3-7.2-8.3-7.2 3.7-7.2 8.3zm7.1-3.3c1 0 2.2 1.4 2.2 3.3s-1.1 3.3-2.2 3.3-2.2-1.4-2.2-3.3 1.2-3.3 2.2-3.3z"/><path d="m118.8 86.9h1v9.1c0 1.4 1.1 2.5 2.5 2.5s2.5-1.1 2.5-2.5v-11.6c0-1.4-1.1-2.5-2.5-2.5h-3.5c-1.4 0-2.5 1.1-2.5 2.5s1.1 2.5 2.5 2.5z"/><path d="m76.4 127.8c-4 0-7.2 3.7-7.2 8.3s3.2 8.3 7.2 8.3 7.2-3.7 7.2-8.3-3.3-8.3-7.2-8.3zm0 11.7c-1 0-2.2-1.4-2.2-3.3s1.1-3.3 2.2-3.3 2.2 1.4 2.2 3.3-1.2 3.3-2.2 3.3z"/><path d="m61.8 144.5c1.4 0 2.5-1.1 2.5-2.5v-11.7c0-1.4-1.1-2.5-2.5-2.5h-3.5c-1.4 0-2.5 1.1-2.5 2.5s1.1 2.5 2.5 2.5h1v9.2c0 1.4 1.1 2.5 2.5 2.5z"/><path d="m152.6 144.5c1.4 0 2.5-1.1 2.5-2.5v-11.7c0-1.4-1.1-2.5-2.5-2.5h-3.5c-1.4 0-2.5 1.1-2.5 2.5s1.1 2.5 2.5 2.5h1v9.2c0 1.4 1.2 2.5 2.5 2.5z"/><path d="m167.2 127.8c-4 0-7.2 3.7-7.2 8.3s3.2 8.3 7.2 8.3 7.2-3.7 7.2-8.3-3.2-8.3-7.2-8.3zm0 11.7c-1 0-2.2-1.4-2.2-3.3s1.1-3.3 2.2-3.3 2.2 1.4 2.2 3.3-1.2 3.3-2.2 3.3z"/><path d="m62.3 196.8c-4 0-7.2 3.7-7.2 8.3s3.2 8.3 7.2 8.3 7.2-3.7 7.2-8.3-3.3-8.3-7.2-8.3zm0 11.7c-1 0-2.2-1.4-2.2-3.3s1.1-3.3 2.2-3.3 2.2 1.4 2.2 3.3-1.2 3.3-2.2 3.3z"/><path d="m78 196.8h-3.5c-1.4 0-2.5 1.1-2.5 2.5s1.1 2.5 2.5 2.5h1v9.2c0 1.4 1.1 2.5 2.5 2.5s2.5-1.1 2.5-2.5v-11.7c0-1.4-1.1-2.5-2.5-2.5z"/><path d="m168.7 196.8h-3.5c-1.4 0-2.5 1.1-2.5 2.5s1.1 2.5 2.5 2.5h1v9.2c0 1.4 1.1 2.5 2.5 2.5s2.5-1.1 2.5-2.5v-11.7c0-1.4-1.2-2.5-2.5-2.5z"/><path d="m92.5 196.8c-4 0-7.2 3.7-7.2 8.3s3.2 8.3 7.2 8.3 7.2-3.7 7.2-8.3-3.2-8.3-7.2-8.3zm0 11.7c-1 0-2.2-1.4-2.2-3.3s1.1-3.3 2.2-3.3 2.2 1.4 2.2 3.3-1.2 3.3-2.2 3.3z"/><path d="m138.5 196.8h-3.5c-1.4 0-2.5 1.1-2.5 2.5s1.1 2.5 2.5 2.5h1v9.2c0 1.4 1.1 2.5 2.5 2.5s2.5-1.1 2.5-2.5v-11.7c0-1.4-1.1-2.5-2.5-2.5z"/><path d="m153.1 196.8c-4 0-7.2 3.7-7.2 8.3s3.2 8.3 7.2 8.3 7.2-3.7 7.2-8.3-3.2-8.3-7.2-8.3zm0 11.7c-1 0-2.2-1.4-2.2-3.3s1.1-3.3 2.2-3.3 2.2 1.4 2.2 3.3-1.2 3.3-2.2 3.3z"/><path d="m108.4 196.8h-3.5c-1.4 0-2.5 1.1-2.5 2.5s1.1 2.5 2.5 2.5h1v9.2c0 1.4 1.1 2.5 2.5 2.5s2.5-1.1 2.5-2.5v-11.7c0-1.4-1.1-2.5-2.5-2.5z"/><path d="m123 196.8c-4 0-7.2 3.7-7.2 8.3s3.2 8.3 7.2 8.3 7.2-3.7 7.2-8.3-3.3-8.3-7.2-8.3zm0 11.7c-1 0-2.2-1.4-2.2-3.3s1.1-3.3 2.2-3.3 2.2 1.4 2.2 3.3-1.2 3.3-2.2 3.3z"/><path d="m76.4 173.8c-4 0-7.2 3.7-7.2 8.3s3.2 8.3 7.2 8.3 7.2-3.7 7.2-8.3-3.3-8.3-7.2-8.3zm0 11.7c-1 0-2.2-1.4-2.2-3.3s1.1-3.3 2.2-3.3 2.2 1.4 2.2 3.3-1.2 3.3-2.2 3.3z"/><path d="m92.1 190.5c1.4 0 2.5-1.1 2.5-2.5v-11.7c0-1.4-1.1-2.5-2.5-2.5h-3.5c-1.4 0-2.5 1.1-2.5 2.5s1.1 2.5 2.5 2.5h1v9.2c0 1.4 1.2 2.5 2.5 2.5z"/><path d="m61.8 190.5c1.4 0 2.5-1.1 2.5-2.5v-11.7c0-1.4-1.1-2.5-2.5-2.5h-3.5c-1.4 0-2.5 1.1-2.5 2.5s1.1 2.5 2.5 2.5h1v9.2c0 1.4 1.1 2.5 2.5 2.5z"/><path d="m136.9 173.8c-4 0-7.2 3.7-7.2 8.3s3.2 8.3 7.2 8.3 7.2-3.7 7.2-8.3-3.3-8.3-7.2-8.3zm0 11.7c-1 0-2.2-1.4-2.2-3.3s1.1-3.3 2.2-3.3 2.2 1.4 2.2 3.3-1.2 3.3-2.2 3.3z"/><path d="m152.6 190.5c1.4 0 2.5-1.1 2.5-2.5v-11.7c0-1.4-1.1-2.5-2.5-2.5h-3.5c-1.4 0-2.5 1.1-2.5 2.5s1.1 2.5 2.5 2.5h1v9.2c0 1.4 1.2 2.5 2.5 2.5z"/><path d="m167.2 173.8c-4 0-7.2 3.7-7.2 8.3s3.2 8.3 7.2 8.3 7.2-3.7 7.2-8.3-3.2-8.3-7.2-8.3zm0 11.7c-1 0-2.2-1.4-2.2-3.3s1.1-3.3 2.2-3.3 2.2 1.4 2.2 3.3-1.2 3.3-2.2 3.3z"/><path d="m120 180.6c6.1 0 11-4.9 11-11 0-1.1-.3-2.1-.9-3 1-1.1 1.7-2.4 2-3.8.3-1 1-1.9 2-2.3 5.1-2.2 7.5-8.1 5.3-13.2-.1-.3-.3-.6-.4-.9-.6-1-.8-2.2-.7-3.4 2.4-13-6.2-25.4-19.2-27.8-.9-.2-1.8-.3-2.7-.3-6.6-.5-13.1 1.9-17.9 6.4-5.9 5.6-8.6 13.7-7.2 21.7.2 1.2-.1 2.4-.7 3.4-2.7 4.9-.9 11 3.9 13.7.2.1.5.3.7.4 1 .4 1.7 1.2 1.9 2.2v.1c.4 1.5 1.1 2.9 2.3 4-.5.8-.8 1.8-.8 2.8 0 6.1 4.9 11 11 11zm-18-19v-.1c-.6-2.5-2.3-4.6-4.7-5.7-2.6-1.2-3.7-4.2-2.5-6.7.1-.1.1-.2.2-.4 1.2-2 1.6-4.4 1.2-6.7-.2-1.1-.3-2.3-.3-3.4 0-10.4 8.5-18.9 18.9-18.9h1.3c10.4.7 18.3 9.7 17.6 20.1 0 .7-.1 1.4-.3 2.2-.4 2.3 0 4.7 1.2 6.7 1.4 2.5.5 5.5-2 6.9-.1.1-.3.2-.4.2-2.4 1-4.3 3.2-4.9 5.7-.3 1.3-1.4 2.3-2.7 2.4 0-1.4-1.2-2.5-2.6-2.4-1.3 0-2.4 1.1-2.4 2.5h-2.1c0-1.4-1.2-2.5-2.5-2.5s-2.4 1.1-2.5 2.5h-2.1c0-1.4-1.2-2.5-2.5-2.5s-2.4 1.1-2.5 2.5h-.1c-1.6.1-2.9-.9-3.3-2.4zm1.7 8c0-.3.2-.5.5-.5h1.2c.2 1.4 1.5 2.3 2.9 2.1 1.1-.2 1.9-1 2.1-2.1h2.2c.2 1.4 1.5 2.3 2.9 2.1 1.1-.2 1.9-1 2.1-2.1h2.2c.2 1.4 1.5 2.3 2.9 2.1 1.1-.2 1.9-1 2.1-2.1h1.1c.3 0 .5.2.5.5 0 3.3-2.7 6-6 6h-10.3c-3.7 0-6.4-2.7-6.4-6z"/><path d="m112.2 157.3c0 1.4 1.1 2.5 2.5 2.5s2.5-1.1 2.5-2.5v-1.8c0-1.4-1.1-2.5-2.5-2.5s-2.5 1.1-2.5 2.5z"/><path d="m123.7 154.9h1.1c4.2 0 7.7-3.4 7.7-7.7v-1.4c0-4.2-3.4-7.7-7.7-7.7-4.2 0-7.7 3.4-7.7 7.7v2.5c0 3.6 3 6.6 6.6 6.6zm-1.6-9.1c0-1.5 1.2-2.7 2.7-2.7s2.7 1.2 2.7 2.7v1.4c0 1.5-1.2 2.7-2.7 2.7h-1.1c-.9 0-1.6-.7-1.6-1.6z"/><path d="m112.6 148.3v-2.5c0-4.2-3.4-7.7-7.7-7.7-4.2 0-7.7 3.4-7.7 7.7v1.4c0 4.2 3.4 7.7 7.7 7.7h1.1c3.7 0 6.6-3 6.6-6.6zm-10.4-1.1v-1.4c0-1.5 1.2-2.7 2.7-2.7s2.7 1.2 2.7 2.7v2.5c0 .9-.7 1.6-1.6 1.6h-1.1c-1.5 0-2.7-1.2-2.7-2.7z"/><path d="m217.6 213.6v-171.7c0-.7-.3-1.3-.7-1.8l-30.5-30.5c-.5-.5-1.1-.7-1.8-.7h-114.8c-5.1 0-9.2 4.1-9.2 9.2v15.1h-15.2c-5.1 0-9.2 4.1-9.2 9.2v195.6c0 5.1 4.1 9.2 9.2 9.2h138.7c5.1 0 9.2-4.1 9.2-9.2v-15.1h15.2c5-.1 9.1-4.2 9.1-9.3zm-30.4-196.2 21.9 21.9h-17.8c-2.3 0-4.2-1.9-4.2-4.2zm1.1 220.5c0 2.3-1.9 4.2-4.2 4.2h-138.7c-2.3 0-4.2-1.9-4.2-4.2v-195.5c0-2.3 1.9-4.2 4.2-4.2h112.4v21.3c0 5.1 4.1 9.2 9.2 9.2h21.3zm-25.5-178.4v-17.8l21.9 21.9h-17.7c-2.3 0-4.2-1.8-4.2-4.1zm49.8 154.1c0 2.3-1.9 4.2-4.2 4.2h-15.2v-151.7c0-.7-.3-1.3-.7-1.8l-30.5-30.5c-.5-.5-1.1-.7-1.8-.7h-94.6v-15c0-2.3 1.9-4.2 4.2-4.2h112.4v21.3c0 5.1 4.1 9.2 9.2 9.2h21.3z"/></g></g></svg>