<svg id="Layer_1" enable-background="new 0 0 256 256" height="512" viewBox="0 0 256 256" width="512" xmlns="http://www.w3.org/2000/svg"><g id="Layer_5"><g><path d="m71.9 233.1h-58.8c-4.2 0-7.6-3.4-7.6-7.6v-37.7c0-4.2 3.4-7.6 7.6-7.6h58.9c4.2 0 7.6 3.4 7.6 7.6v37.7c-.1 4.2-3.5 7.6-7.7 7.6z" fill="#3a70bf"/><path d="m156.9 233.1h-58.8c-4.2 0-7.6-3.4-7.6-7.6v-37.7c0-4.2 3.4-7.6 7.6-7.6h58.9c4.2 0 7.6 3.4 7.6 7.6v37.7c-.1 4.2-3.5 7.6-7.7 7.6z" fill="#3a70bf"/><path d="m241.9 233.1h-58.9c-4.2 0-7.6-3.4-7.6-7.6v-37.7c0-4.2 3.4-7.6 7.6-7.6h58.9c4.2 0 7.6 3.4 7.6 7.6v37.7c0 4.2-3.4 7.6-7.6 7.6z" fill="#3a70bf"/><path d="m54.1 243.5h-23.2c-2.8 0-5 2.2-5 5s2.2 5 5 5h23.2c2.8 0 5-2.2 5-5s-2.2-5-5-5z" fill="#edf4fc"/><path d="m139.1 243.5h-23.2c-2.8 0-5 2.2-5 5s2.2 5 5 5h23.2c2.8 0 5-2.2 5-5s-2.2-5-5-5z" fill="#edf4fc"/><path d="m224.1 243.5h-23.2c-2.8 0-5 2.2-5 5s2.2 5 5 5h23.2c2.8 0 5-2.2 5-5s-2.2-5-5-5z" fill="#edf4fc"/><path d="m207.5 233.1h10v10.4h-10z" fill="#c7d7e5"/><path d="m122.5 233.1h10v10.4h-10z" fill="#c7d7e5"/><path d="m37.5 233.1h10v10.4h-10z" fill="#c7d7e5"/><path d="m14.9 189.6h55.2v34h-55.2z" fill="#9be5f9"/><path d="m99.9 189.6h55.2v34h-55.2z" fill="#9be5f9"/><path d="m184.9 189.6h55.2v34h-55.2z" fill="#9be5f9"/><path d="m14.9 214.9h55.2v8.8h-55.2z" fill="#3caadc"/><path d="m99.9 214.9h55.2v8.8h-55.2z" fill="#3caadc"/><path d="m184.9 214.9h55.2v8.8h-55.2z" fill="#3caadc"/><g fill="#f5c84c"><path d="m14.9 214.9h10.2v8.8h-10.2z"/><path d="m99.9 214.9h10.2v8.8h-10.2z"/><path d="m184.9 214.9h10.2v8.8h-10.2z"/><path d="m117.9 132.5h20.3c1.6 0 3 1.3 3 3v16.7c0 1.6-1.3 3-3 3h-20.3c-1.6 0-3-1.3-3-3v-16.7c0-1.7 1.3-3 3-3z"/></g><circle cx="128" cy="47.6" fill="#3caadc" r="45.1"/><path d="m191.9 77.9h-2.1v-2.1c0-1.5-1.3-2.8-2.8-2.8s-2.8 1.3-2.8 2.8v2.1h-2.1c-1.5 0-2.8 1.3-2.8 2.8s1.3 2.8 2.8 2.8h2.1v2.1c0 1.5 1.3 2.8 2.8 2.8s2.8-1.3 2.8-2.8v-2.1h2.1c1.5 0 2.8-1.3 2.8-2.8.1-1.6-1.2-2.8-2.8-2.8z" fill="#70d6f9"/><path d="m66.8 115.9c-4-.7-7.1-3.8-7.9-7.7 0-.1-.1-.2-.2-.1-.1 0-.1.1-.1.1-.8 4-3.9 7-7.9 7.7-.1 0-.2.1-.1.2 0 .1.1.1.1.1 4 .7 7.1 3.8 7.9 7.7 0 .1.1.2.2.1.1 0 .1-.1.1-.1.8-4 3.9-7 7.9-7.7.1 0 .2-.1.1-.2.1 0 0-.1-.1-.1z" fill="#ef4460"/><circle cx="77" cy="97" fill="#fc8c48" r="3"/><circle cx="195" cy="55" fill="#f5c84c" r="3"/><circle cx="179" cy="164" fill="#87d147" r="3"/><path d="m117 124.7v5.4c-2.6.4-4.6 2.7-4.6 5.4v16.7c0 3 2.5 5.5 5.5 5.5h20.3c3 0 5.5-2.5 5.5-5.5v-16.7c0-2.7-1.9-5-4.6-5.4v-5.4c0-6.1-4.9-11-11-11s-11.1 4.9-11.1 11zm21.1 10.3c.3 0 .5.2.5.5v16.7c0 .3-.2.5-.5.5h-20.3c-.3 0-.5-.2-.5-.5v-16.7c0-.3.2-.5.5-.5zm-16.1-10.3c0-3.3 2.7-6 6-6s6 2.7 6 6v5.3h-12z"/><path d="m125.5 144v1.6c0 1.4 1.1 2.5 2.5 2.5s2.5-1.1 2.5-2.5v-1.6c1.4-.1 2.4-1.3 2.3-2.6s-1.2-2.3-2.5-2.3h-4.7c-1.4 0-2.5 1.1-2.5 2.5.1 1.2 1.1 2.3 2.4 2.4z"/><path d="m13.1 235.6h21.9v5.4h-4.1c-4.1 0-7.5 3.4-7.5 7.5s3.4 7.5 7.5 7.5h23.2c4.1 0 7.5-3.4 7.5-7.5s-3.4-7.5-7.5-7.5h-4.1v-5.4h21.9c5.6 0 10.1-4.5 10.1-10.1v-37.7c0-5.6-4.5-10.1-10.1-10.1h-58.8c-5.6 0-10.1 4.5-10.1 10.1v37.7c0 5.6 4.5 10.1 10.1 10.1zm41 10.4c1.4 0 2.5 1.1 2.5 2.5s-1.1 2.5-2.5 2.5h-23.2c-1.4 0-2.5-1.1-2.5-2.5s1.1-2.5 2.5-2.5zm-14.1-5v-5.4h5v5.4zm-32-53.2c0-2.8 2.3-5.1 5.1-5.1h58.9c2.8 0 5.1 2.3 5.1 5.1v37.7c0 2.8-2.3 5.1-5.1 5.1h-58.9c-2.8 0-5.1-2.3-5.1-5.1z"/><path d="m88 187.8v37.7c0 5.6 4.5 10.1 10.1 10.1h21.9v5.4h-4.1c-4.1 0-7.5 3.4-7.5 7.5s3.4 7.5 7.5 7.5h23.2c4.1 0 7.5-3.4 7.5-7.5s-3.4-7.5-7.5-7.5h-4.1v-5.4h21.9c5.6 0 10.1-4.5 10.1-10.1v-37.7c0-5.6-4.5-10.1-10.1-10.1h-58.8c-5.6 0-10.1 4.5-10.1 10.1zm51.1 58.2c1.4 0 2.5 1.1 2.5 2.5s-1.1 2.5-2.5 2.5h-23.2c-1.4 0-2.5-1.1-2.5-2.5s1.1-2.5 2.5-2.5zm-14.1-5v-5.4h5v5.4zm37-53.2v37.7c0 2.8-2.3 5.1-5.1 5.1h-58.8c-2.8 0-5.1-2.3-5.1-5.1v-37.7c0-2.8 2.3-5.1 5.1-5.1h58.9c2.8 0 5 2.3 5 5.1z"/><path d="m173 187.8v37.7c0 5.6 4.5 10.1 10.1 10.1h21.9v5.4h-4.1c-4.1 0-7.5 3.4-7.5 7.5s3.4 7.5 7.5 7.5h23.2c4.1 0 7.5-3.4 7.5-7.5s-3.4-7.5-7.5-7.5h-4.1v-5.4h21.9c5.6 0 10.1-4.5 10.1-10.1v-37.7c0-5.6-4.5-10.1-10.1-10.1h-58.9c-5.5 0-10 4.5-10 10.1zm51.1 58.2c1.4 0 2.5 1.1 2.5 2.5s-1.1 2.5-2.5 2.5h-23.2c-1.4 0-2.5-1.1-2.5-2.5s1.1-2.5 2.5-2.5zm-14.1-5v-5.4h5v5.4zm37-53.2v37.7c0 2.8-2.3 5.1-5.1 5.1h-58.9c-2.8 0-5.1-2.3-5.1-5.1v-37.7c0-2.8 2.3-5.1 5.1-5.1h58.9c2.9 0 5.1 2.3 5.1 5.1z"/><path d="m128 95.1c26.3 0 47.6-21.3 47.6-47.6s-21.3-47.5-47.6-47.5-47.6 21.3-47.6 47.6c.1 26.2 21.3 47.5 47.6 47.5zm-19.6-18.7c2.8.8 5.6 1.5 8.5 1.9.7 3.4 1.8 6.7 3.3 9.9-4.6-2.2-8.6-6.3-11.8-11.8zm5.6-37.4c-.3 5.7-.3 11.5 0 17.2-4.1-.3-8.3-.9-12.3-1.7-.5-4.6-.5-9.3 0-13.9 4.1-.8 8.2-1.3 12.3-1.6zm-11.5-3.6c.7-3.6 1.6-7.1 3-10.4 3.4-1.3 6.9-2.3 10.4-3-.6 3.7-1.1 7.7-1.5 11.9-4.2.4-8.2.9-11.9 1.5zm11.9 25.8c.3 4.2.8 8.2 1.5 11.9-3.6-.7-7.1-1.6-10.4-3-1.3-3.4-2.3-6.9-3-10.4 3.7.6 7.7 1.1 11.9 1.5zm4.7-22.6c6-.3 11.9-.3 17.9 0 .3 6 .3 11.9 0 17.9-6 .3-11.9.3-17.9 0-.3-6-.3-11.9 0-17.9zm8.9 51.5c-1.6 0-3.9-3.8-5.8-11.1 3.9.3 7.7.3 11.6 0-1.9 7.3-4.2 11.1-5.8 11.1zm-6.9-16.3c-.8-4.1-1.3-8.2-1.7-12.3 5.7.3 11.4.3 17.2 0-.3 4.1-.9 8.3-1.7 12.3-4.6.5-9.2.5-13.8 0zm14.7 14.4c1.4-3.2 2.5-6.5 3.3-9.9 2.9-.5 5.7-1.1 8.5-1.9-3.2 5.5-7.2 9.6-11.8 11.8zm6.2-49.2c4.1.3 8.3.9 12.3 1.7.5 4.6.5 9.3 0 13.9-4.1.8-8.2 1.3-12.3 1.7.2-5.9.2-11.6 0-17.3zm-.4-5.1c-.3-4.2-.8-8.2-1.5-11.9 3.6.7 7.1 1.6 10.4 3 1.3 3.4 2.3 6.9 3 10.4-3.7-.6-7.7-1.1-11.9-1.5zm0 27.3c4.2-.3 8.2-.8 11.9-1.5-.7 3.6-1.6 7.1-3 10.4-3.4 1.3-6.9 2.3-10.4 3 .7-3.7 1.2-7.7 1.5-11.9zm5.3 24.5c3.1-3.5 5.6-7.5 7.4-11.8 4.3-1.9 8.2-4.4 11.8-7.4-4.1 8.3-10.9 15-19.2 19.2zm9.9-18.6c.8-2.8 1.5-5.6 1.9-8.5 3.4-.7 6.7-1.8 9.9-3.3-2.2 4.6-6.3 8.7-11.8 11.8zm13.8-19.5c0 1.6-3.8 3.9-11.1 5.8.3-3.9.3-7.7 0-11.6 7.2 1.9 11.1 4.2 11.1 5.8zm-11.8-11.1c-.5-2.9-1.1-5.7-1.9-8.5 5.5 3.2 9.6 7.2 11.9 11.8-3.3-1.5-6.6-2.6-10-3.3zm7.3-7.9c-3.5-3.1-7.5-5.6-11.8-7.4-1.9-4.3-4.4-8.2-7.4-11.8 8.3 4.2 15.1 10.9 19.2 19.2zm-18.5-9.9c-2.8-.8-5.6-1.5-8.5-1.9-.7-3.4-1.8-6.7-3.3-9.9 4.6 2.2 8.6 6.4 11.8 11.8zm-19.6-13.7c1.6 0 3.9 3.8 5.8 11.1-3.9-.3-7.7-.3-11.6 0 1.9-7.3 4.2-11.1 5.8-11.1zm6.9 16.3c.8 4.1 1.3 8.2 1.7 12.3-5.7-.3-11.4-.3-17.2 0 .3-4.1.9-8.3 1.7-12.3 4.6-.5 9.2-.5 13.8 0zm-14.7-14.4c-1.4 3.2-2.5 6.5-3.3 9.9-2.9.5-5.7 1.1-8.5 1.9 3.2-5.4 7.2-9.6 11.8-11.8zm-11.1 2.6c-3.1 3.5-5.6 7.5-7.4 11.8-4.3 1.9-8.2 4.4-11.8 7.4 4.1-8.4 10.9-15.1 19.2-19.2zm-9.9 18.5c-.8 2.8-1.5 5.6-1.9 8.5-3.4.7-6.7 1.8-9.9 3.3 2.2-4.6 6.3-8.7 11.8-11.8zm-13.8 19.6c0-1.6 3.8-3.9 11.1-5.8-.3 3.9-.3 7.7 0 11.6-7.2-2-11.1-4.3-11.1-5.8zm11.8 11c.5 2.9 1.1 5.7 1.9 8.5-5.5-3.2-9.6-7.2-11.9-11.8 3.3 1.5 6.6 2.6 10 3.3zm4.5 15.3c1.9 4.3 4.4 8.2 7.4 11.8-8.3-4.1-15-10.9-19.2-19.2 3.5 3 7.5 5.5 11.8 7.4z"/><path d="m130.5 107.1v-6.2c0-1.4-1.1-2.5-2.5-2.5s-2.5 1.1-2.5 2.5v6.2c0 1.4 1.1 2.5 2.5 2.5s2.5-1.1 2.5-2.5z"/><path d="m125.5 164.3v6.2c0 1.4 1.1 2.5 2.5 2.5s2.5-1.1 2.5-2.5v-6.2c0-1.4-1.1-2.5-2.5-2.5s-2.5 1.2-2.5 2.5z"/><path d="m149 144.5c0 1.4 1.1 2.5 2.5 2.5h58.5v23.5c0 1.4 1.1 2.5 2.5 2.5s2.5-1.1 2.5-2.5v-26c0-1.4-1.1-2.5-2.5-2.5h-61c-1.4 0-2.5 1.1-2.5 2.5z"/><path d="m43.5 173c1.4 0 2.5-1.1 2.5-2.5v-23.5h58.5c1.4 0 2.5-1.1 2.5-2.5s-1.1-2.5-2.5-2.5h-61c-1.4 0-2.5 1.1-2.5 2.5v26c0 1.4 1.1 2.5 2.5 2.5z"/><path d="m97.4 223.7c0 1.4 1.1 2.5 2.5 2.5h55.2c1.4 0 2.5-1.1 2.5-2.5v-34c0-1.4-1.1-2.5-2.5-2.5h-55.2c-1.4 0-2.5 1.1-2.5 2.5zm55.2-2.5h-40v-3.8h40zm-50.2-29.1h50.2v20.3h-50.2zm0 25.3h5.2v3.8h-5.2z"/><path d="m182.4 223.7c0 1.4 1.1 2.5 2.5 2.5h55.2c1.4 0 2.5-1.1 2.5-2.5v-34c0-1.4-1.1-2.5-2.5-2.5h-55.2c-1.4 0-2.5 1.1-2.5 2.5zm55.2-2.5h-40v-3.8h40zm-50.2-29.1h50.2v20.3h-50.2zm0 25.3h5.2v3.8h-5.2z"/><path d="m14.9 226.2h55.2c1.4 0 2.5-1.1 2.5-2.5v-34c0-1.4-1.1-2.5-2.5-2.5h-55.2c-1.4 0-2.5 1.1-2.5 2.5v34c0 1.3 1.1 2.5 2.5 2.5zm52.7-5h-40v-3.8h40zm-50.2-29.1h50.2v20.3h-50.2zm0 25.3h5.2v3.8h-5.2z"/></g></g></svg>