<svg id="Capa_1" enable-background="new 0 0 512 512" height="512" viewBox="0 0 512 512" width="512" xmlns="http://www.w3.org/2000/svg"><g><g><path d="m335.569 153.537c1.258-3.042 3.725-5.423 6.838-6.493l26.731-9.189v-34.433l-26.731-9.189c-3.113-1.07-5.58-3.451-6.838-6.493-.013-.032-.026-.063-.039-.095-1.263-3.043-1.204-6.473.242-9.434l12.404-25.399-24.348-24.348-25.399 12.404c-2.96 1.446-6.391 1.505-9.434.241-.032-.013-.063-.026-.095-.039-3.042-1.258-5.423-3.725-6.493-6.838l-9.19-26.732h-34.433l-9.189 26.731c-1.07 3.113-3.451 5.58-6.493 6.838-.032.013-.064.026-.095.039-3.043 1.263-6.473 1.204-9.434-.241l-25.399-12.404-24.348 24.348 12.404 25.399c1.446 2.96 1.505 6.391.241 9.434-.013.032-.026.063-.039.095-1.258 3.042-3.725 5.423-6.838 6.493l-26.731 9.189v34.433l26.731 9.189c3.113 1.07 5.58 3.451 6.838 6.493.013.032.026.064.039.095 1.263 3.043 1.204 6.473-.241 9.434l-12.404 25.399 24.348 24.348 25.399-12.404c2.96-1.446 6.391-1.505 9.434-.241.032.013.063.026.095.039 3.042 1.258 5.423 3.725 6.493 6.838l9.189 26.731h34.433l9.189-26.731c1.07-3.113 3.451-5.58 6.493-6.838.032-.013.064-.026.095-.039 3.043-1.263 6.473-1.204 9.434.241l25.399 12.404 24.348-24.348-12.404-25.399c-1.446-2.96-1.505-6.391-.242-9.434.013-.031.026-.062.04-.094zm-79.569 16.292c-27.167 0-49.191-22.023-49.191-49.191s22.024-49.19 49.191-49.19 49.191 22.023 49.191 49.191-22.024 49.19-49.191 49.19z" fill="#e4936b"/></g><g><path d="m335.569 153.537c1.258-3.042 3.725-5.423 6.838-6.493l26.731-9.189v-34.433l-26.731-9.189c-3.113-1.07-5.58-3.451-6.838-6.493-.013-.032-.026-.063-.039-.095-1.263-3.043-1.204-6.473.242-9.434l12.404-25.399-19.303-19.303c-.325 21.926-9.441 47.442-26.167 71.693 1.604 4.857 2.485 10.042 2.485 15.437 0 27.167-22.023 49.191-49.191 49.191-7.047 0-13.742-1.493-19.802-4.162-24.291 13.247-48.798 18.804-68.827 15.538l-3.546 7.26 24.348 24.348 25.399-12.404c2.96-1.446 6.391-1.505 9.434-.241.032.013.063.026.095.039 3.042 1.258 5.423 3.725 6.493 6.838l9.189 26.731h34.433l9.189-26.731c1.07-3.113 3.451-5.58 6.493-6.838.032-.013.064-.026.095-.039 3.043-1.263 6.473-1.204 9.434.241l25.399 12.404 24.348-24.348-12.404-25.399c-1.446-2.96-1.505-6.391-.242-9.434.014-.033.027-.064.041-.096z" fill="#e27d47"/></g><g><circle cx="256" cy="120.638" fill="#b3e59f" r="49.191"/></g><g><g><path d="m489.348 472.175h-202.033v-131.321c0-5.579 4.523-10.102 10.102-10.102h181.829c5.579 0 10.102 4.523 10.102 10.102z" fill="#bed8fb"/></g><g><path d="m479.246 330.752h-21.995c5.579 0 10.102 4.523 10.102 10.102v131.321h21.995v-131.321c0-5.579-4.523-10.102-10.102-10.102z" fill="#9dc6fb"/></g><g><path d="m494.398 504.5h-212.134c-5.579 0-10.102-4.523-10.102-10.102v-22.224h232.338v22.224c0 5.579-4.523 10.102-10.102 10.102z" fill="#efecef"/></g><g><path d="m483.168 472.175v22.224c0 5.579-4.523 10.102-10.102 10.102h21.332c5.579 0 10.102-4.523 10.102-10.102v-22.224z" fill="#dddaec"/></g></g><g><g><path d="m224.685 472.175h-202.033v-131.321c0-5.579 4.523-10.102 10.102-10.102h181.829c5.579 0 10.102 4.523 10.102 10.102z" fill="#bed8fb"/></g><g><path d="m214.583 330.752h-21.995c5.579 0 10.102 4.523 10.102 10.102v131.321h21.995v-131.321c0-5.579-4.523-10.102-10.102-10.102z" fill="#9dc6fb"/></g><g><path d="m229.736 504.5h-212.134c-5.579 0-10.102-4.523-10.102-10.102v-22.224h232.337v22.224c0 5.579-4.522 10.102-10.101 10.102z" fill="#efecef"/></g><g><path d="m218.506 472.175v22.224c0 5.579-4.523 10.102-10.102 10.102h21.332c5.579 0 10.102-4.523 10.102-10.102v-22.224z" fill="#dddaec"/></g></g><g><circle cx="256" cy="282.264" fill="#ffe07d" r="16.163"/></g><g><path d="m256.572 177.316c30.995-.309 56.118-25.609 56.118-56.675v-.001s0 0 0-.001 0-.001 0-.002c-.002-31.026-25.062-56.297-56.003-56.669-.428-.023-.835-.026-1.262-.007-11.348.113-22.262 3.558-31.594 9.995-3.409 2.352-4.267 7.022-1.915 10.432s7.02 4.268 10.433 1.916c1.663-1.147 3.396-2.161 5.185-3.047-.029.087-.059.169-.088.257-2.695 8.204-4.398 18.522-4.929 29.624h-17.524c.177-.978.379-1.951.625-2.914 1.023-4.014-1.4-8.097-5.414-9.121-4.002-1.021-8.097 1.399-9.121 5.413-1.175 4.61-1.772 9.36-1.772 14.119v.003.001.001c0 31.067 25.123 56.366 56.118 56.675.191.007.951.007 1.143.001zm-9.042-49.178h16.94c-1.005 19.459-5.757 30.849-8.47 33.736-2.713-2.886-7.465-14.277-8.47-33.736zm26.944 29.862c.027-.081.055-.156.081-.238 2.695-8.204 4.398-18.522 4.929-29.624h17.518c-2.393 13.116-10.936 24.106-22.528 29.862zm22.527-44.862h-17.518c-.531-11.102-2.234-21.42-4.929-29.624-.026-.08-.053-.154-.08-.233 11.591 5.755 20.133 16.744 22.527 29.857zm-41.001-33.736c2.713 2.886 7.465 14.277 8.47 33.736h-16.94c1.005-19.459 5.757-30.849 8.47-33.736zm-41.002 48.736h17.518c.531 11.102 2.234 21.42 4.929 29.624.027.081.054.157.081.238-11.592-5.756-20.135-16.746-22.528-29.862z"/><path d="m504.5 464.67h-7.652v-123.816c0-9.706-7.896-17.602-17.602-17.602h-83.415v-40.988c0-4.142-3.357-7.5-7.5-7.5h-109.893c-2.354-7.023-7.915-12.583-14.938-14.937v-18.551h9.717c3.202 0 6.052-2.034 7.093-5.062l9.188-26.731c.685-2.158 3.63-3.374 5.639-2.335l25.399 12.404c2.875 1.405 6.329.829 8.595-1.436l24.348-24.348c2.264-2.265 2.841-5.717 1.436-8.595l-12.404-25.398c-.484-.992-.504-2.183-.035-3.313.006-.014.016-.037.025-.062.449-1.081 1.303-1.906 2.346-2.264l26.731-9.189c3.028-1.041 5.062-3.89 5.062-7.093v-34.434c0-3.203-2.033-6.052-5.062-7.093l-26.731-9.188c-1.044-.358-1.899-1.186-2.313-2.187l-.076-.185c-.45-1.084-.431-2.275.054-3.267l12.404-25.399c1.405-2.878.828-6.33-1.436-8.595l-24.349-24.346c-2.266-2.265-5.72-2.841-8.595-1.436l-25.399 12.404c-.992.484-2.182.504-3.268.054-.002-.001-.101-.042-.103-.042-1.083-.448-1.91-1.303-2.269-2.346l-9.187-26.732c-1.041-3.028-3.891-5.062-7.093-5.062h-34.434c-3.202 0-6.052 2.034-7.093 5.062l-9.188 26.731c-.358 1.043-1.186 1.898-2.269 2.347-.002.001-.101.042-.103.042-1.085.451-2.274.431-3.268-.054l-25.399-12.404c-2.875-1.405-6.33-.829-8.595 1.436l-24.348 24.348c-2.264 2.265-2.841 5.717-1.436 8.595l12.404 25.398c.484.993.504 2.184.054 3.268-.001.003-.041.101-.043.104-.447 1.083-1.303 1.91-2.347 2.268l-26.731 9.188c-3.028 1.041-5.062 3.89-5.062 7.093v34.434c0 3.203 2.033 6.052 5.062 7.093l26.732 9.189c1.043.358 1.898 1.185 2.312 2.186l.076.186c.45 1.083.431 2.274-.054 3.266l-12.404 25.399c-1.405 2.878-.828 6.33 1.436 8.595l24.348 24.348c2.265 2.265 5.72 2.841 8.595 1.436l25.399-12.404c.992-.484 2.182-.504 3.268-.054.003.001.101.042.104.043 1.083.448 1.909 1.303 2.268 2.345l9.188 26.731c1.041 3.028 3.891 5.062 7.093 5.062h9.717v18.551c-7.023 2.354-12.584 7.915-14.938 14.937h-109.892c-4.143 0-7.5 3.358-7.5 7.5v40.986h-83.419c-9.704 0-17.6 7.896-17.6 17.6v123.825h-7.65c-4.143 0-7.5 3.358-7.5 7.5v22.224c0 9.704 7.896 17.6 17.602 17.6h212.134c9.705 0 17.602-7.896 17.602-17.602v-22.224c0-4.142-3.357-7.5-7.5-7.5h-7.657v-67.303c0-4.142-3.357-7.5-7.5-7.5s-7.5 3.358-7.5 7.5v67.303h-187.031v-123.824c0-1.434 1.166-2.6 2.6-2.6h181.83c1.434 0 2.6 1.167 2.6 2.6v21.521c0 4.142 3.357 7.5 7.5 7.5s7.5-3.358 7.5-7.5v-21.521c0-9.705-7.896-17.6-17.6-17.6h-83.411v-33.486h102.393c3.144 9.381 12.011 16.163 22.438 16.163s19.293-6.781 22.438-16.163h102.393v33.488h-83.414c-9.705 0-17.602 7.896-17.602 17.602v123.816h-7.655c-4.143 0-7.5 3.358-7.5 7.5v22.23c0 9.705 7.896 17.6 17.6 17.6h212.14c9.704 0 17.6-7.896 17.6-17.6v-22.23c0-4.142-3.357-7.5-7.5-7.5zm-267.812-260.064c-1.757-5.109-5.664-9.239-10.807-11.366-5.056-2.099-10.742-1.942-15.6.429l-20.59 10.055-16.778-16.778 10.056-20.59c2.372-4.858 2.528-10.544.466-15.51l-.072-.177c-2.093-5.056-6.223-8.963-11.331-10.719l-21.67-7.449v-23.729l21.67-7.448c5.109-1.757 9.239-5.664 11.366-10.805 2.1-5.057 1.943-10.743-.429-15.602l-10.056-20.587 16.778-16.778 20.59 10.055c4.857 2.373 10.544 2.528 15.688.393 5.055-2.092 8.961-6.222 10.718-11.331l7.449-21.669h23.729l7.448 21.67c1.757 5.108 5.663 9.238 10.807 11.366 5.057 2.099 10.743 1.943 15.6-.429l20.59-10.055 16.778 16.778-10.056 20.59c-2.372 4.858-2.528 10.544-.45 15.547l.057.139c2.092 5.056 6.222 8.962 11.331 10.719l21.67 7.448v23.729l-21.669 7.449c-5.109 1.756-9.239 5.663-11.332 10.719-.011.027-.024.059-.035.086-2.1 5.056-1.943 10.742.429 15.602l10.056 20.589-16.778 16.778-20.59-10.055c-4.855-2.372-10.541-2.528-15.688-.393-5.055 2.091-8.962 6.221-10.719 11.331l-7.448 21.669h-23.729zm-4.351 289.792c0 1.435-1.167 2.602-2.602 2.602h-212.133c-1.435 0-2.602-1.167-2.602-2.602v-14.724h217.337zm23.663-203.471c-4.776 0-8.663-3.886-8.663-8.663s3.887-8.663 8.663-8.663 8.663 3.886 8.663 8.663-3.887 8.663-8.663 8.663zm241 203.473c0 1.434-1.166 2.6-2.6 2.6h-212.14c-1.434 0-2.6-1.167-2.6-2.6v-14.73h7.559c.032 0 .064.005.097.005s.064-.004.097-.005h150.387c4.143 0 7.5-3.358 7.5-7.5s-3.357-7.5-7.5-7.5h-142.985v-123.816c0-1.435 1.167-2.602 2.602-2.602h181.829c1.435 0 2.602 1.167 2.602 2.602v123.816h-9.048c-4.143 0-7.5 3.358-7.5 7.5s3.357 7.5 7.5 7.5h16.451c.032 0 .064.005.097.005s.064-.004.097-.005h7.555z"/></g></g></svg>