<svg id="Capa_1" enable-background="new 0 0 512 512" height="512" viewBox="0 0 512 512" width="512" xmlns="http://www.w3.org/2000/svg"><g><g><path d="m448 199h-64c-8.284 0-15-6.716-15-15v-88c0-8.284 6.716-15 15-15h64c8.284 0 15 6.716 15 15v88c0 8.284-6.716 15-15 15z" fill="#ef8729"/></g><g><path d="m384 0h-304c-8.28 0-15 6.72-15 15v225c0 8.28 6.72 15 15 15h304c8.28 0 15-6.72 15-15v-225c0-8.28-6.72-15-15-15z" fill="#f2f2fc"/></g><g><path d="m399 15v225c0 8.28-6.72 15-15 15h-128v-255h128c8.28 0 15 6.72 15 15z" fill="#d6d6f2"/></g><g><path d="m335 72c0 8.28-6.72 15-15 15h-176c-8.28 0-15-6.72-15-15s6.72-15 15-15h176c8.28 0 15 6.72 15 15z" fill="#00e4ef"/></g><g><path d="m335 128c0 8.28-6.72 15-15 15h-72c-8.28 0-15-6.72-15-15s6.72-15 15-15h72c8.28 0 15 6.72 15 15z" fill="#00e4ef"/></g><g><path d="m335 128c0 8.28-6.72 15-15 15h-64v-30h64c8.28 0 15 6.72 15 15z" fill="#6ba7ff"/></g><g><path d="m320 87h-64v-30h64c8.28 0 15 6.72 15 15s-6.72 15-15 15z" fill="#6ba7ff"/></g><g><path d="m448 169h-215.97l-27.55-41.32c-2.78-4.17-7.46-6.68-12.48-6.68h-128c-8.28 0-15 6.72-15 15v288c0 8.28 6.72 15 15 15h384c8.28 0 15-6.72 15-15v-240c0-8.28-6.72-15-15-15z" fill="#ffbe40"/></g><g><path d="m463 184v240c0 8.28-6.72 15-15 15h-192v-270h192c8.28 0 15 6.72 15 15z" fill="#ff9f40"/></g><g><path d="m49 337h414v30h-414z" fill="#ffdf40"/></g><g><path d="m256 337h207v30h-207z" fill="#ffbe40"/></g><g><path d="m335 304v16c0 8.28-6.72 15-15 15s-15-6.72-15-15v-16c0-27.02-21.98-49-49-49s-49 21.98-49 49v16c0 8.28-6.72 15-15 15s-15-6.72-15-15v-16c0-43.56 35.44-79 79-79s79 35.44 79 79z" fill="#d6d6f2"/></g><g><path d="m335 304v16c0 8.28-6.72 15-15 15s-15-6.72-15-15v-16c0-27.02-21.98-49-49-49v-30c43.56 0 79 35.44 79 79z" fill="#bfbfef"/></g><g><path d="m322 306h-132c-24.81 0-45 20.19-45 45v116c0 24.81 20.19 45 45 45h132c24.81 0 45-20.19 45-45v-116c0-24.81-20.19-45-45-45z" fill="#61729b"/></g><g><path d="m367 351v116c0 24.81-20.19 45-45 45h-66v-206h66c24.81 0 45 20.19 45 45z" fill="#47568c"/></g><g><path d="m271 393v40c0 8.28-6.72 15-15 15s-15-6.72-15-15v-40c0-8.28 6.72-15 15-15s15 6.72 15 15z" fill="#47568c"/></g><g><path d="m271 393v40c0 8.28-6.72 15-15 15v-70c8.28 0 15 6.72 15 15z" fill="#2c3b73"/></g></g></svg>