<svg id="Layer_1" enable-background="new 0 0 256 256" height="512" viewBox="0 0 256 256" width="512" xmlns="http://www.w3.org/2000/svg"><g id="Layer_11"><g><path d="m202 13.2h-166.8c-.8 0-1.4.6-1.4 1.4v207.9c0 1.2 1 2.2 2.2 2.2h165.2c1.2 0 2.2-1 2.2-2.2v-207.9c0-.7-.6-1.4-1.4-1.4z" fill="#edf4fc"/><path d="m143.1 180h-48.9c-1.4 0-2.7-.6-3.7-1.5l-24.8-24.8c-1-1-1.5-2.3-1.5-3.7v-48.9c0-1.4.6-2.7 1.5-3.7l24.8-24.8c1-1 2.3-1.5 3.7-1.5h48.9c1.4 0 2.7.6 3.7 1.5l24.8 24.8c1 1 1.5 2.3 1.5 3.7v48.9c0 1.4-.6 2.7-1.5 3.7l-24.8 24.8c-1 1-2.3 1.5-3.7 1.5z" fill="#fc657e"/><path d="m163.2 102.1-21.2-21.1c-.4-.4-.9-.6-1.5-.6h-43.7c-.6 0-1.1.2-1.5.6l-21.2 21.2c-.4.4-.6.9-.6 1.5v43.8c0 .6.2 1.1.6 1.5l21.2 21c.4.4.9.6 1.5.6h43.8c.6 0 1.1-.2 1.5-.6l21.2-21.2c.4-.4.6-.9.6-1.5v-43.8c-.1-.4-.3-1-.7-1.4z" fill="#ef4460"/><path d="m142 117.4c-2.9 0-5 1.5-6.5 3.9-.4.7-.8 1.5-1 2.4l-2.1 6c0-17.2 0 2.4 0-24.8 0-2.6-2.1-4.7-4.7-4.7h-.1c-2.6 0-4.7 2.1-4.7 4.7v-6.9c0-2.6-2.1-4.7-4.7-4.7h-.1c-2.6.1-4.6 2.3-4.5 4.9v6.6c0-2.6-2.1-4.7-4.7-4.7h-.1c-2.6.1-4.6 2.3-4.5 4.9v6.6c0-2.6-2.1-4.7-4.7-4.7h-.1c-2.6.1-4.6 2.3-4.5 4.9v27.8c0 10.3 8.3 18.6 18.6 18.6h9.5c5.1 0 9.2-2.5 12.1-6.6 2.1-2.8 3.7-6 4.6-9.3.1-.1 3.1-14.9 4.5-22.2.2-1.3-.6-2.5-1.9-2.7-.1 0-.2 0-.4 0z" fill="#edf4fc"/><path d="m220.8 31.3h-17.3v191.2c0 1.2-1 2.2-2.2 2.2h-148.7v15.9c0 1.2 1 2.2 2.2 2.2h165.2c1.2 0 2.2-1 2.2-2.2v-207.9c0-.8-.7-1.4-1.4-1.4z" fill="#c7d7e5"/><path d="m220.8 31.3h-17.3v18.1h18.7v-16.7c0-.8-.7-1.4-1.4-1.4z" fill="#3a70bf"/><path d="m202 13.2h-166.8c-.8 0-1.4.6-1.4 1.4v16.7h169.6v-16.7c0-.7-.6-1.4-1.4-1.4z" fill="#5290db"/><path d="m238.1 16.2h-2.1v-2.1c0-1.5-1.3-2.8-2.8-2.8s-2.8 1.3-2.8 2.8v2.1h-2.1c-1.5 0-2.8 1.3-2.8 2.8s1.3 2.8 2.8 2.8h2.1v2.1c0 1.5 1.3 2.8 2.8 2.8s2.8-1.3 2.8-2.8v-2.1h2.1c1.5 0 2.8-1.3 2.8-2.8s-1.2-2.8-2.8-2.8z" fill="#70d6f9"/><path d="m43.7 247.8c-4-.7-7.1-3.8-7.9-7.7 0-.1-.1-.2-.2-.1-.1 0-.1.1-.1.1-.8 4-3.9 7-7.9 7.7-.1 0-.2.1-.1.2 0 .1.1.1.1.1 4 .7 7.1 3.8 7.9 7.7 0 .1.1.2.2.1.1 0 .1-.1.1-.1.8-4 3.9-7 7.9-7.7.1 0 .2-.1.2-.2s-.1-.1-.2-.1z" fill="#f5c84c"/><circle cx="212" cy="3" fill="#ef4460" r="3"/><circle cx="233" cy="93" fill="#5290db" r="3"/><circle cx="18" cy="218" fill="#87d147" r="3"/><circle cx="49.4" cy="21.9" r="2.9"/><circle cx="59.6" cy="21.9" r="2.9"/><circle cx="69.8" cy="21.9" r="2.9"/><path d="m202 10.7h-166.8c-2.1 0-3.9 1.7-3.9 3.9v207.9c0 2.6 2.1 4.7 4.7 4.7h14v13.4c0 2.6 2.1 4.7 4.7 4.7h165.3c2.6 0 4.7-2.1 4.7-4.7v-207.9c0-2.1-1.7-3.9-3.9-3.9h-14.8v-14.2c-.1-2.1-1.8-3.9-4-3.9zm-165.7 5h164.6v13.1h-164.6zm0 206.5v-188.4h164.6v188.4zm183.4 18.1h-164.6v-13.1h146.1c2.6 0 4.7-2.1 4.7-4.7v-170.6h13.7v188.4zm0-206.5v13.1h-13.7v-13.1z"/><path d="m148.6 70.8c-1.5-1.5-3.4-2.3-5.5-2.3h-48.9c-2.1 0-4.1.8-5.5 2.3l-24.8 24.8c-1.5 1.5-2.3 3.4-2.3 5.5v48.9c0 2.1.8 4.1 2.3 5.5l24.8 24.8c1.5 1.5 3.4 2.3 5.5 2.3h48.9c2.1 0 4.1-.8 5.5-2.3l24.8-24.8c1.5-1.5 2.3-3.4 2.3-5.5v-48.9c0-2.1-.8-4.1-2.3-5.5zm22.1 79.1c0 .7-.3 1.5-.8 2l-24.9 24.8c-.5.5-1.2.8-2 .8h-48.8c-.7 0-1.5-.3-2-.8l-24.8-24.8c-.5-.5-.8-1.2-.8-2v-48.9c0-.7.3-1.5.8-2l24.8-24.8c.5-.5 1.2-.8 2-.8h48.9c.7 0 1.5.3 2 .8l24.8 24.8c.5.5.8 1.2.8 2z"/><path d="m143.8 79.2c-.9-.9-2-1.3-3.2-1.3h-43.8c-1.2 0-2.4.5-3.2 1.3l-21.2 21.2c-.9.9-1.3 2-1.3 3.2v43.8c0 1.2.5 2.4 1.3 3.2l21.2 21.2c.9.9 2 1.3 3.2 1.3h43.8c1.2 0 2.4-.5 3.2-1.3l21.2-21.2c.9-.9 1.3-2 1.3-3.2v-43.8c0-1.2-.5-2.4-1.3-3.2zm17.5 68-20.9 20.9h-43.5l-20.9-20.9v-43.4l20.9-20.9h43.4l20.9 20.9z"/><path d="m135 104.9c0-4-3.3-7.2-7.3-7.2-.7 0-1.4.1-2.1.3 0-4-3.2-7.2-7.2-7.1-.1 0-.1 0-.2 0-3.8.2-6.9 3.3-7 7.1-3.8-1.2-7.8.9-9 4.7-.2.7-.3 1.4-.3 2.1-3.8-1.2-7.8.9-9 4.7-.2.8-.4 1.6-.3 2.4v27.8c0 11.6 9.4 21.1 21.1 21.1h9.5c5.7 0 10.6-2.6 14.2-7.6 2.3-3 4-6.5 4.9-10.2h-.1c.6-1.9 1.7-7.1 4.6-22.3.5-2.6-1.2-5.2-3.8-5.7-.3-.1-.6-.1-.9-.1-2.7 0-5.2 1.1-7 3-.1-2.3-.1-6.1-.1-13zm2.7 17.7c1.1-1.8 2.4-2.7 4.1-2.8-1.4 7-4.1 20.3-4.4 21.7v.2c-.8 3.1-2.2 6-4.2 8.5-2.6 3.7-6 5.5-10.1 5.5h-9.5c-8.9 0-16.1-7.2-16.1-16.1v-27.8c-.1-1.2.8-2.3 2-2.4s2.3.8 2.4 2v.2 9.3c0 1.4 1.1 2.5 2.5 2.5s2.5-1.1 2.5-2.5v-15.9c-.1-1.2.8-2.3 2-2.4s2.3.8 2.4 2v.3 16c0 1.4 1.1 2.5 2.5 2.5s2.5-1.1 2.5-2.5v-22.7c0-1.2.9-2.3 2.1-2.4 1.2 0 2.2.9 2.3 2.1v.1 23c0 1.4 1.1 2.5 2.5 2.5s2.5-1.1 2.5-2.5v-16c-.1-1.2.9-2.3 2.1-2.3 1.2-.1 2.3.9 2.3 2.1v.1 16.4 8.4c0 1.4 1.1 2.5 2.5 2.5 1.1 0 2-.7 2.3-1.7 0-.1 2.6-7.5 2.8-7.9z"/></g></g></svg>