<svg id="Layer_1" enable-background="new 0 0 256 256" height="512" viewBox="0 0 256 256" width="512" xmlns="http://www.w3.org/2000/svg"><g id="Layer_13"><g><path d="m202.1 13.2h-166.8c-.8 0-1.4.6-1.4 1.4v207.9c0 1.2 1 2.2 2.2 2.2h165.2c1.2 0 2.2-1 2.2-2.2v-207.9c0-.7-.7-1.4-1.4-1.4z" fill="#edf4fc"/><path d="m220.8 31.3h-17.3v191.2c0 1.2-1 2.2-2.2 2.2h-148.7v15.9c0 1.2 1 2.2 2.2 2.2h165.2c1.2 0 2.2-1 2.2-2.2v-207.9c0-.8-.6-1.4-1.4-1.4z" fill="#c7d7e5"/><path d="m220.8 31.3h-17.3v18.1h18.7v-16.7c0-.8-.6-1.4-1.4-1.4z" fill="#3a70bf"/><path d="m202.1 13.2h-166.8c-.8 0-1.4.6-1.4 1.4v16.7h169.6v-16.7c0-.7-.7-1.4-1.4-1.4z" fill="#5290db"/><path d="m171.6 92.6c0-2.3-1.5-4.4-3.8-5-16.8-4.9-31.4-10.2-41.9-21.4-3.6-3.9-9.8-4.1-13.7-.5-.2.2-.3.3-.5.5-10.5 11.2-25.1 16.6-41.9 21.4-2.2.6-3.8 2.7-3.8 5v25.6c0 30.7 16.9 58.9 44.3 74.9 5.2 3 11.7 3 16.9 0 27.4-16 44.3-44.2 44.3-74.9z" fill="#fc657e"/><path d="m76.1 96.1v22.1c0 27.1 14.7 51.8 39.3 66.2 2.1 1.2 4.7 1.2 6.8 0 24.6-14.4 39.3-39.1 39.3-66.2v-22.1c-15.3-4.6-30.8-10.4-42.8-22.9-11.8 12.5-27.3 18.4-42.6 22.9z" fill="#ef4460"/><g fill="#edf4fc"><path d="m133.8 147.4c-2.8 0-5-2.2-5-5 0-1.3.5-2.6 1.5-3.5l9.9-9.9-9.9-9.9c-1.9-2-1.9-5.1 0-7.1 2-1.9 5.1-1.9 7.1 0l13.4 13.4c2 2 2 5.1 0 7.1l-13.4 13.5c-1 .9-2.2 1.4-3.6 1.4z"/><path d="m103.8 147.4c-1.3 0-2.6-.5-3.5-1.5l-13.4-13.4c-2-2-2-5.1 0-7.1l13.4-13.4c2-2 5.1-2 7.1 0s2 5.1 0 7.1l-9.9 9.9 9.9 9.9c2 2 2 5.1 0 7.1-1 .9-2.2 1.4-3.6 1.4z"/><path d="m114.3 147.5c-2.8 0-5-2.2-5-5 0-.5.1-1.1.3-1.6l9-27c.9-2.6 3.7-4 6.3-3.2 2.6.9 4 3.7 3.2 6.3l-9 27c-.7 2.1-2.6 3.5-4.8 3.5z"/></g><path d="m238.1 16.2h-2.1v-2.1c0-1.5-1.3-2.8-2.8-2.8s-2.8 1.3-2.8 2.8v2.1h-2.1c-1.5 0-2.8 1.3-2.8 2.8s1.3 2.8 2.8 2.8h2.1v2.1c0 1.5 1.3 2.8 2.8 2.8s2.8-1.3 2.8-2.8v-2.1h2.1c1.5 0 2.8-1.3 2.8-2.8.1-1.5-1.2-2.8-2.8-2.8z" fill="#70d6f9"/><path d="m43.8 247.8c-4-.7-7.1-3.8-7.9-7.7 0-.1-.1-.2-.2-.1-.1 0-.1.1-.1.1-.8 4-3.9 7-7.9 7.7-.1 0-.2.1-.1.2 0 .1.1.1.1.1 4 .7 7.1 3.8 7.9 7.7 0 .1.1.2.2.1.1 0 .1-.1.1-.1.8-4 3.9-7 7.9-7.7.1 0 .2-.1.1-.2 0-.1 0-.1-.1-.1z" fill="#f5c84c"/><circle cx="212" cy="3" fill="#5290db" r="3"/><circle cx="233" cy="93" fill="#87d147" r="3"/><circle cx="18" cy="218" fill="#ef4460" r="3"/><circle cx="49.5" cy="21.9" r="2.9"/><circle cx="59.7" cy="21.9" r="2.9"/><circle cx="69.9" cy="21.9" r="2.9"/><path d="m54.8 245.3h165.2c2.6 0 4.7-2.1 4.7-4.7v-207.9c0-2.1-1.7-3.9-3.9-3.9h-14.8v-14.2c0-2.1-1.7-3.9-3.9-3.9h-166.8c-2.1 0-3.9 1.7-3.9 3.9v207.9c0 2.6 2.1 4.7 4.7 4.7h14v13.4c0 2.6 2.1 4.7 4.7 4.7zm151.2-211.5h13.7v13.1h-13.7zm0 188.7v-170.6h13.7v188.4h-164.6v-13.1h146.1c2.7 0 4.8-2.1 4.8-4.7zm-169.6-206.8h164.6v13.1h-164.6zm0 206.5v-188.4h164.6v188.4z"/><path d="m109.1 195.2c6 3.5 13.4 3.5 19.4 0 28.5-16.7 45.5-45.4 45.5-77v-25.6c0-3.4-2.3-6.5-5.6-7.4-18-5.2-31.2-10.5-40.8-20.7-4.6-4.9-12.3-5.2-17.2-.6-.2.2-.4.4-.6.6-9.6 10.2-22.7 15.5-40.8 20.7-3.3 1-5.6 4-5.6 7.4v25.6c.2 31.6 17.2 60.4 45.7 77zm-40.5-102.6c0-1.2.8-2.3 2-2.6 15.5-4.5 31.5-9.8 43-22.1 2.7-2.9 7.2-3.1 10.1-.4l.4.4c11.5 12.3 27.6 17.6 43 22.1 1.2.3 2 1.4 2 2.6v25.6c0 29.8-16.1 57-43.1 72.7-4.4 2.6-9.9 2.6-14.4 0-27-15.7-43.1-42.9-43.1-72.7v-25.6z"/><path d="m114.2 186.6c2.9 1.7 6.4 1.7 9.3 0 25.4-14.8 40.6-40.4 40.6-68.4v-22.1c0-1.1-.7-2.1-1.8-2.4-14.9-4.4-30.2-10.2-41.7-22.3-1-1-2.5-1-3.5-.1 0 0-.1.1-.1.1-11.5 12.1-26.8 17.8-41.7 22.3-1.1.3-1.8 1.3-1.8 2.4v22.1c.1 28 15.3 53.5 40.7 68.4zm-35.6-88.6c14.2-4.3 28.7-10 40.2-21.2 11.5 11.2 26 16.9 40.3 21.2v20.2c0 26.2-14.2 50.1-38.1 64.1-1.3.8-3 .8-4.3 0-23.9-13.9-38.1-37.9-38.1-64.1z"/><path d="m109.1 147.8c2.9 2.9 7.7 2.9 10.6 0 .8-.8 1.4-1.8 1.8-2.9l7.8-23.3 7.4 7.4-8.1 8.1c-3 2.9-3 7.7-.1 10.6 2.9 3 7.7 3 10.6.1 0 0 .1-.1.1-.1l13.4-13.4c2.9-2.9 2.9-7.7 0-10.6l-13.4-13.4c-2.9-2.9-7.6-2.9-10.5-.1-2.9-2.9-7.7-2.9-10.6 0-.8.8-1.4 1.8-1.8 2.9l-7.8 23.3-7.5-7.4 8.1-8.1c2.9-2.9 2.9-7.7 0-10.6s-7.7-2.9-10.6 0l-13.4 13.4c-2.9 2.9-2.9 7.7 0 10.6l13.4 13.4c2.9 2.9 7.6 3 10.6.1zm23-34c1-1 2.6-1 3.5 0l13.4 13.4c1 1 1 2.6 0 3.5l-13.4 13.4c-1 .9-2.5.9-3.5 0-1-1-1-2.6 0-3.5l9.9-9.9c1-1 1-2.6 0-3.5l-9.9-9.9c-1-.9-1-2.5 0-3.5zm-20.1 27.9 9-27c.4-1.3 1.8-2 3.1-1.6s2 1.8 1.6 3.1l-9 27c-.5 1.3-1.9 2-3.2 1.6s-2-1.8-1.5-3.1zm-23.4-10.9c-1-1-1-2.6 0-3.5l13.4-13.4c1-1 2.6-1 3.5 0s1 2.6 0 3.5l-9.9 9.9c-1 1-1 2.6 0 3.5l9.9 9.9c1 1 1 2.6 0 3.5s-2.5.9-3.5 0z"/></g></g></svg>